<?xml version="1.0" standalone="no"?>
<!DOCTYPE svg PUBLIC "-//W3C//DTD SVG 20010904//EN"
 "http://www.w3.org/TR/2001/REC-SVG-20010904/DTD/svg10.dtd">
<svg version="1.0" xmlns="http://www.w3.org/2000/svg"
 width="600.000000pt" height="600.000000pt" viewBox="0 0 600.000000 600.000000"
 preserveAspectRatio="xMidYMid meet">
<metadata>
Created by potrace 1.11, written by Peter Selinger 2001-2013
</metadata>
<g transform="translate(0.000000,600.000000) scale(0.100000,-0.100000)"
fill="#000000" stroke="none">
<path d="M0 3000 l0 -3000 1463 1 c804 1 1451 3 1437 6 -282 43 -504 153 -688
342 -190 195 -296 424 -328 709 l-7 62 31 0 c30 0 31 -2 35 -48 l3 -47 2 48
c2 42 4 47 26 47 22 0 24 -6 36 -91 31 -233 111 -400 284 -599 75 -86 270
-206 409 -254 148 -50 385 -67 522 -38 315 68 572 257 717 529 23 43 45 80 49
83 3 3 9 19 12 35 3 17 15 62 26 100 12 39 25 106 29 150 7 79 7 80 36 83 l28
4 -7 -78 c-19 -208 -108 -420 -244 -581 -64 -77 -86 -116 -26 -48 154 176 251
388 277 608 12 96 12 97 39 97 27 0 27 -1 23 -52 -31 -329 -176 -605 -423
-807 -166 -136 -354 -217 -591 -254 -14 -3 617 -5 1403 -6 l1427 -1 0 3000 0
3000 -1466 0 c-1428 0 -1466 0 -1443 -18 28 -22 75 -55 272 -191 l147 -101
660 0 c363 0 660 -2 660 -4 0 -5 -90 -267 -206 -598 -24 -70 -44 -129 -44
-132 0 -2 56 -43 124 -90 69 -48 127 -90 129 -94 3 -4 -19 -32 -49 -62 l-54
-55 81 -3 c71 -2 80 -5 75 -20 -41 -111 -81 -200 -87 -196 -8 4 4 40 46 140
25 61 23 64 -57 64 -66 0 -74 -2 -95 -27 -13 -14 -26 -23 -30 -20 -3 4 2 16
11 26 18 19 17 20 -26 24 l-43 4 48 1 c27 1 47 7 47 13 0 6 -14 36 -31 66
l-31 54 -33 -36 c-19 -19 -37 -35 -40 -35 -4 0 9 17 29 37 20 21 36 42 36 46
0 5 -14 35 -32 65 l-32 56 -12 -29 c-7 -17 -21 -58 -31 -92 -19 -68 -28 -77
-35 -38 -3 14 -2 25 2 25 8 0 21 38 26 70 1 8 9 29 18 45 24 44 20 61 -19 85
-35 22 -36 22 -58 4 -22 -19 -22 -19 -5 2 14 15 15 23 6 32 -9 9 -15 5 -25
-19 -19 -45 -16 -73 13 -130 20 -41 28 -48 39 -39 12 10 12 7 2 -14 -6 -13
-14 -23 -16 -20 -2 2 -11 -2 -19 -9 -13 -10 -14 -9 -2 9 11 17 8 28 -15 75
l-28 54 -14 -39 c-7 -22 -16 -42 -19 -45 -10 -10 0 53 13 78 10 21 8 32 -13
74 -20 39 -23 52 -13 61 9 8 10 8 5 -1 -6 -12 22 -83 34 -83 4 0 11 15 17 34
10 33 9 35 -36 67 -25 18 -49 32 -53 31 -3 -1 -9 5 -12 13 -8 21 -1 19 57 -20
28 -19 55 -35 59 -35 3 0 19 37 34 83 28 87 31 93 39 85 3 -2 -9 -45 -25 -94
l-31 -89 26 -20 c13 -11 38 -29 55 -38 36 -22 28 -35 95 163 26 74 73 209 105
300 32 91 62 177 65 193 l7 27 -626 0 c-344 0 -626 -2 -626 -4 0 -3 48 -37
106 -76 l106 -71 254 3 c140 2 253 -1 251 -5 -1 -5 -111 -8 -245 -7 -133 0
-242 -1 -242 -4 0 -3 77 -57 171 -121 94 -64 186 -126 203 -138 17 -12 33 -23
35 -24 2 -2 1 -6 -2 -10 -4 -3 -16 2 -27 12 -15 14 -20 15 -21 4 0 -9 -3 -7
-8 4 -4 10 -36 38 -71 62 -54 35 -66 40 -71 27 -4 -12 -7 -10 -12 10 -4 14
-22 35 -39 46 -18 12 -68 46 -110 76 l-78 55 -291 0 -292 0 92 -64 c50 -36 96
-65 101 -65 6 0 10 -4 10 -8 0 -5 10 -14 23 -20 17 -8 18 -11 5 -11 -17 -1
-119 65 -126 81 -2 5 -8 8 -13 8 -5 0 -32 16 -60 36 -32 24 -64 38 -89 40
l-39 3 -4 -62 -3 -62 -2 63 c-2 48 -5 62 -17 62 -12 0 -15 -13 -15 -60 0 -33
-4 -60 -10 -60 -6 0 -10 26 -10 59 l0 59 -36 0 c-24 0 -48 -10 -78 -33 -24
-18 -53 -38 -64 -44 -11 -6 -26 -17 -34 -24 -18 -17 -113 -77 -123 -77 -4 0 4
11 19 25 15 14 29 25 32 25 5 0 122 80 162 111 23 18 16 18 -269 17 -201 0
-297 -4 -305 -12 -7 -6 -35 -27 -63 -46 -110 -76 -150 -107 -145 -113 3 -3 1
-14 -6 -24 -10 -16 -10 -15 -5 5 6 22 6 23 -17 10 -71 -40 -119 -75 -123 -88
-3 -8 -16 -16 -30 -16 l-25 -2 22 18 c22 16 96 68 271 186 134 92 147 85 -148
84 -143 -1 -261 2 -262 7 -2 4 120 7 270 5 l272 -3 75 52 c41 29 90 63 109 76
l34 23 -647 0 c-355 0 -646 -4 -646 -8 0 -5 45 -139 101 -298 56 -159 110
-316 121 -349 12 -33 22 -62 24 -63 2 -3 25 12 106 68 4 3 -8 48 -27 100 -40
109 -40 111 -20 104 8 -4 15 -14 15 -24 0 -16 47 -150 55 -158 2 -2 37 19 79
47 42 29 76 48 76 44 -1 -14 -27 -43 -33 -36 -4 3 -14 0 -23 -8 -13 -11 -13
-15 -2 -24 16 -13 21 -35 8 -35 -5 0 -10 6 -10 14 0 33 -28 26 -89 -21 -2 -1
4 -21 14 -43 12 -27 22 -37 29 -31 7 6 11 1 12 -15 1 -13 -2 -21 -7 -18 -12 7
-11 -23 2 -47 6 -11 8 -25 6 -32 -3 -7 -10 1 -16 16 -6 16 -14 26 -18 24 -5
-3 -8 9 -9 26 -1 37 -23 89 -42 95 -7 2 -28 -12 -47 -31 -19 -19 -36 -33 -38
-31 -1 2 -3 -5 -3 -16 0 -10 4 -16 8 -14 4 3 5 -1 2 -9 -3 -8 4 -41 15 -73 24
-68 24 -64 12 -64 -5 0 -17 24 -27 53 -24 75 -25 75 -51 22 l-25 -47 29 -32
28 -31 -30 27 -31 28 -33 -61 c-27 -49 -31 -63 -20 -70 17 -11 13 -11 -92 -9
-48 1 -89 -2 -92 -7 -3 -4 6 -35 19 -67 23 -58 31 -97 17 -82 -4 4 -21 43 -39
86 l-31 80 89 0 89 0 -50 58 c-28 32 -51 61 -51 64 0 3 52 41 115 84 78 53
114 84 111 94 -2 8 -54 157 -116 330 -96 270 -139 397 -140 408 0 1 305 2 678
2 l677 0 215 150 c118 82 220 150 225 150 6 0 10 -56 11 -148 1 -128 3 -147
18 -150 14 -3 16 13 16 152 l0 156 -1530 0 -1530 0 0 -3000z m1593 2643 c-7
-2 -21 -2 -30 0 -10 3 -4 5 12 5 17 0 24 -2 18 -5z m80 0 c-7 -2 -19 -2 -25 0
-7 3 -2 5 12 5 14 0 19 -2 13 -5z m2854 0 c-20 -2 -52 -2 -70 0 -17 2 0 4 38
4 39 0 53 -2 32 -4z m-2812 -33 c10 -11 16 -20 13 -20 -3 0 -13 9 -23 20 -10
11 -16 20 -13 20 3 0 13 -9 23 -20z m-122 -17 c-4 -11 -8 -12 -11 -5 -6 18
-32 14 -33 -5 -1 -16 -2 -16 -6 -1 -2 9 -14 19 -26 21 -12 2 1 5 30 6 45 1 52
-1 46 -16z m2882 9 c-4 -4 -12 -7 -18 -7 -7 0 -12 -4 -12 -10 0 -5 3 -9 8 -7
4 1 7 -3 7 -9 0 -6 -7 -8 -16 -5 -9 3 -18 6 -20 6 -2 0 -4 7 -4 16 0 12 -7 15
-25 12 -13 -3 -22 -2 -19 3 2 4 27 8 55 7 28 0 48 -3 44 -6z m-2889 -41 c12
10 13 9 8 -4 -4 -12 4 -20 30 -31 21 -9 36 -22 36 -32 0 -10 5 -14 14 -11 8 3
16 -2 19 -12 8 -31 -27 -21 -43 12 -12 25 -21 32 -44 32 -27 0 -45 20 -45 50
1 6 3 4 6 -3 4 -10 8 -10 19 -1z m2895 -28 c0 -11 3 -13 6 -5 6 15 63 -16 63
-35 0 -7 7 -13 15 -13 19 0 20 -16 1 -23 -9 -4 -16 3 -20 16 -4 17 -8 19 -18
9 -14 -14 -72 -17 -64 -3 3 5 17 9 31 9 14 0 29 3 33 6 9 10 -20 27 -36 21 -7
-3 -22 0 -33 5 -13 7 -19 7 -19 0 0 -5 -3 -9 -7 -9 -21 3 -33 -2 -33 -16 0 -8
7 -15 15 -15 8 0 15 5 15 10 0 6 5 10 10 10 6 0 10 -7 10 -15 0 -10 -10 -15
-29 -15 -17 0 -33 -5 -37 -11 -4 -8 -9 -8 -17 0 -18 18 52 77 86 72 4 0 7 4 7
9 0 18 20 11 21 -7z m-2938 -15 c-26 -13 -38 -38 -18 -38 8 0 15 5 15 10 0 6
8 10 18 9 10 0 12 -3 4 -6 -6 -2 -10 -8 -7 -13 3 -4 -8 -7 -25 -6 -16 1 -31
-2 -33 -8 -4 -12 -27 1 -27 15 0 6 5 7 10 4 6 -4 20 5 31 19 11 14 28 26 37
25 13 0 12 -3 -5 -11z m67 -33 c0 -8 -4 -15 -10 -15 -5 0 -7 7 -4 15 4 8 8 15
10 15 2 0 4 -7 4 -15z m145 5 c-3 -5 -14 -10 -23 -9 -14 0 -13 2 3 9 27 11 27
11 20 0z m-315 -10 c0 -5 -2 -10 -4 -10 -3 0 -8 5 -11 10 -3 6 -1 10 4 10 6 0
11 -4 11 -10z m187 -12 c-3 -8 -6 -5 -6 6 -1 11 2 17 5 13 3 -3 4 -12 1 -19z
m2620 0 c-3 -8 -6 -5 -6 6 -1 11 2 17 5 13 3 -3 4 -12 1 -19z m-1900 -20 c-3
-8 -6 -5 -6 6 -1 11 2 17 5 13 3 -3 4 -12 1 -19z m2131 -3 c19 0 39 -3 45 -7
7 -4 -3 -8 -20 -8 -31 0 -32 -1 -23 -26 13 -34 13 -41 -2 -26 -7 7 -17 12 -22
12 -6 0 -4 -4 4 -10 8 -5 11 -12 7 -17 -5 -4 -12 -1 -17 7 -6 9 -5 19 0 24 15
15 12 36 -6 36 -8 0 -12 -4 -9 -10 3 -5 1 -10 -5 -10 -6 0 -8 -4 -5 -10 3 -5
1 -10 -4 -10 -6 0 -12 5 -12 10 -3 20 -4 25 -11 36 -4 6 -1 11 7 11 8 0 12 -4
9 -9 -3 -4 0 -8 5 -8 6 0 11 8 11 18 0 10 3 13 8 7 4 -6 22 -11 40 -10z
m-2957 -10 c5 4 6 -1 2 -10 -5 -13 -7 -14 -14 -3 -5 7 -8 18 -8 23 0 6 3 4 6
-3 2 -6 9 -10 14 -7z m99 3 c0 -4 8 -5 18 -2 13 5 14 4 3 -4 -7 -5 -22 -7 -32
-5 -21 6 -27 -21 -7 -33 7 -5 8 -3 3 6 -5 8 -4 11 2 7 6 -4 9 -19 7 -34 l-3
-28 30 33 c17 19 28 40 25 48 -3 8 -1 14 4 14 15 0 12 -33 -6 -59 -14 -19 -14
-25 -3 -32 10 -6 5 -8 -16 -7 -17 1 -36 -2 -43 -6 -14 -8 -52 1 -52 13 0 5 11
6 24 4 31 -6 42 13 16 27 -12 6 -20 7 -20 1 0 -5 5 -12 10 -14 6 -3 5 -4 -2
-3 -14 3 -15 20 -3 49 6 13 2 17 -16 18 -22 0 -23 1 -4 8 24 10 65 9 65 -1z
m2675 -16 c-3 -3 0 -11 6 -18 13 -16 2 -57 -14 -51 -7 3 -11 10 -9 16 1 6 -5
25 -13 41 -20 39 -19 41 10 28 14 -6 23 -13 20 -16z m-2898 -3 c4 -14 8 -17
13 -9 5 7 9 -2 12 -22 3 -29 1 -34 -19 -36 -13 -1 -23 3 -23 8 0 6 4 10 9 10
4 0 6 11 3 25 -2 14 -8 25 -13 25 -5 0 -9 5 -9 10 0 19 22 10 27 -11z m108
-26 c4 -23 9 -32 14 -24 6 10 10 9 14 -2 3 -9 0 -18 -7 -20 -14 -5 -46 51 -46
79 0 28 18 5 25 -33z m2896 -6 c22 -24 25 -44 5 -44 -8 0 -12 6 -9 15 4 8 -1
19 -10 24 -10 5 -17 20 -16 36 1 20 3 22 6 8 3 -10 14 -28 24 -39z m169 38 c0
-9 -7 -29 -15 -44 -8 -16 -11 -32 -7 -36 4 -5 -1 -5 -11 -2 -10 4 -28 2 -39
-4 -21 -11 -72 -4 -64 10 3 4 21 6 40 5 21 -2 36 1 36 7 0 6 7 8 16 5 12 -4
15 -2 10 9 -3 8 -1 15 4 15 6 0 10 11 10 25 0 14 5 25 10 25 6 0 10 -7 10 -15z
m-3026 -20 c-4 -8 -8 -15 -10 -15 -2 0 -4 7 -4 15 0 8 4 15 10 15 5 0 7 -7 4
-15z m99 0 c-3 -9 -8 -14 -10 -11 -3 3 -2 9 2 15 9 16 15 13 8 -4z m2114 -17
c-3 -8 -6 -5 -6 6 -1 11 2 17 5 13 3 -3 4 -12 1 -19z m-473 -62 c99 -19 238
-67 328 -112 80 -40 206 -122 227 -148 12 -14 9 -16 -27 -16 -36 0 -107 30
-122 51 -12 17 -193 100 -275 127 -130 42 -222 56 -375 55 -245 -1 -453 -65
-655 -200 -37 -24 -61 -33 -92 -33 -24 0 -43 3 -43 8 1 14 119 93 214 143 117
61 233 102 357 123 52 8 105 18 119 20 45 8 268 -4 344 -18z m-1887 -8 c-3 -8
-6 -5 -6 6 -1 11 2 17 5 13 3 -3 4 -12 1 -19z m48 -9 c-8 -11 -3 -11 28 0 22
9 24 7 19 -11 -3 -12 -1 -19 4 -15 5 3 20 0 33 -7 20 -11 21 -14 7 -19 -11 -4
-14 -12 -10 -19 4 -7 -2 -5 -13 5 -11 9 -27 17 -35 17 -9 0 -18 7 -22 15 -3 8
-13 15 -22 15 -13 0 -14 3 -5 13 6 8 7 18 3 22 -4 5 -1 5 6 1 7 -4 10 -12 7
-17z m209 -4 c-4 -8 -10 -13 -15 -10 -4 3 -6 12 -3 20 4 8 10 13 15 10 4 -3 6
-12 3 -20z m2726 5 c0 -14 -5 -18 -17 -13 -10 3 -15 3 -11 -1 3 -4 12 -9 20
-10 41 -7 59 -18 49 -30 -6 -7 -8 -16 -4 -20 4 -4 -6 0 -22 8 -17 9 -36 16
-43 16 -8 0 -10 5 -6 12 5 8 2 9 -10 5 -11 -5 -15 -3 -10 5 5 8 2 9 -9 5 -21
-8 -22 6 -2 23 9 7 15 8 15 2 0 -5 9 -8 20 -5 11 3 20 9 20 14 0 5 2 9 5 9 3
0 5 -9 5 -20z m186 -31 c0 -16 -3 -29 -6 -30 -3 0 -14 -2 -25 -3 -11 -2 -29
-6 -41 -9 -15 -5 -21 -3 -21 9 0 10 7 14 19 11 10 -3 16 -1 13 3 -3 4 9 13 26
19 19 6 28 15 24 22 -6 8 -10 7 -16 -2 -5 -8 -9 -12 -10 -9 0 3 -2 13 -4 22
-3 14 1 15 20 6 16 -7 22 -18 21 -39z m-2889 -27 c-6 -7 -18 -10 -30 -6 -11 3
-17 2 -14 -2 3 -5 -5 -10 -17 -10 -13 -1 -23 4 -23 12 0 8 9 14 19 14 10 0 18
4 18 9 0 5 9 11 20 14 11 3 21 13 21 24 1 10 5 5 8 -12 4 -16 3 -36 -2 -43z
m1478 18 c115 -11 223 -35 313 -70 67 -26 186 -85 226 -114 17 -11 33 -22 35
-23 2 -2 2 -5 0 -8 -3 -2 -25 9 -49 26 -109 73 -274 137 -425 165 -133 24
-366 15 -497 -19 -116 -31 -230 -79 -318 -135 -35 -22 -67 -39 -69 -36 -7 7
29 30 129 82 171 89 308 126 525 141 11 0 70 -4 130 -9z m-1084 -37 c-8 -15
-10 -15 -11 -2 0 17 10 32 18 25 2 -3 -1 -13 -7 -23z m111 5 c-7 -7 -12 -8
-12 -2 0 14 12 26 19 19 2 -3 -1 -11 -7 -17z m100 0 c-7 -7 -12 -8 -12 -2 0
14 12 26 19 19 2 -3 -1 -11 -7 -17z m95 0 c-3 -8 -6 -5 -6 6 -1 11 2 17 5 13
3 -3 4 -12 1 -19z m1640 0 c-3 -8 -6 -5 -6 6 -1 11 2 17 5 13 3 -3 4 -12 1
-19z m-842 -18 c146 -17 292 -62 419 -131 88 -48 60 -45 -35 4 -323 164 -727
159 -1048 -14 -30 -16 -56 -27 -59 -25 -2 3 36 25 84 49 212 105 413 142 639
117z m-1254 -61 c-5 -13 -10 -19 -10 -12 -1 15 10 45 15 40 3 -2 0 -15 -5 -28z
m120 0 c-5 -13 -10 -19 -10 -12 -1 15 10 45 15 40 3 -2 0 -15 -5 -28z m110 -6
c-12 -20 -14 -14 -5 12 4 9 9 14 11 11 3 -2 0 -13 -6 -23z m1684 18 c3 -5 1
-12 -5 -16 -5 -3 -10 1 -10 9 0 18 6 21 15 7z m225 -24 c0 -5 -4 -5 -10 -2 -5
3 -10 14 -10 23 0 15 2 15 10 2 5 -8 10 -19 10 -23z m-2212 -42 c0 -36 3 -80
7 -98 27 -134 136 -292 258 -374 30 -21 35 -29 26 -40 -17 -20 -6 -25 26 -13
22 8 26 8 22 -4 -7 -19 63 -126 105 -160 18 -15 44 -37 58 -50 47 -44 120 -71
120 -45 0 16 -49 76 -67 83 -14 6 -14 4 -2 -11 7 -10 19 -23 27 -30 8 -6 12
-17 10 -23 -4 -13 -223 197 -231 223 -4 9 -3 17 1 17 4 0 48 -23 97 -51 288
-165 473 -347 581 -572 19 -39 34 -78 33 -87 0 -8 -11 8 -25 35 -22 44 -24 46
-18 16 4 -23 3 -31 -5 -27 -6 4 -11 3 -11 -3 0 -5 5 -13 10 -16 6 -3 10 -13
10 -21 0 -8 -4 -12 -10 -9 -5 3 -10 1 -10 -4 0 -19 -18 -12 -55 20 -25 22 -33
26 -28 13 6 -17 5 -17 -10 -5 -25 20 -21 7 5 -15 12 -10 18 -13 13 -5 -6 10
-4 12 4 7 8 -6 9 -11 1 -20 -7 -10 -5 -20 8 -37 11 -13 25 -36 33 -50 8 -15
25 -46 38 -70 36 -65 59 -142 65 -212 l5 -62 -10 50 c-5 28 -19 81 -31 120
-42 131 -172 273 -346 378 -57 36 -244 127 -258 127 -12 0 -146 112 -183 153
-20 22 -43 60 -52 86 -16 50 -48 112 -48 96 -1 -25 28 -173 37 -197 15 -38 3
-36 -68 7 -65 39 -170 147 -170 173 1 14 4 13 20 -7 28 -33 25 -20 -14 57 -18
37 -43 99 -55 137 -21 66 -21 78 -11 217 6 80 17 172 26 205 15 57 59 163 67
163 3 0 5 -29 5 -65z m2089 43 c-3 -8 -6 -5 -6 6 -1 11 2 17 5 13 3 -3 4 -12
1 -19z m243 1 c0 -5 -4 -9 -10 -9 -5 0 -10 7 -10 16 0 8 5 12 10 9 6 -3 10
-10 10 -16z m145 -183 c8 -43 15 -113 15 -156 0 -43 5 -82 10 -85 23 -14 -13
-151 -71 -268 -44 -88 -48 -101 -18 -63 25 32 36 28 18 -6 -27 -52 -74 -100
-145 -148 -84 -56 -100 -61 -90 -27 10 32 36 169 35 187 -1 17 -59 -99 -59
-117 0 -16 -92 -108 -155 -156 -28 -21 -88 -55 -135 -75 -333 -148 -540 -363
-560 -581 -4 -49 -9 -70 -14 -59 -11 24 20 170 48 227 30 63 116 211 135 236
15 18 15 19 -1 6 -10 -7 -18 -10 -18 -5 0 4 -10 -1 -22 -12 -36 -30 -68 -46
-68 -33 0 6 -7 9 -15 5 -14 -5 -14 -2 0 24 18 34 19 44 5 35 -7 -4 -9 3 -5 22
5 22 1 19 -19 -17 -32 -57 -32 -49 -1 27 83 206 266 404 510 553 73 45 178
100 189 100 20 0 -55 -81 -215 -232 -41 -39 -39 -12 2 30 17 18 27 32 23 32
-14 -1 -38 -23 -63 -58 -26 -37 -13 -50 33 -32 64 24 236 205 236 247 0 8 13
13 33 14 17 0 26 3 20 6 -22 8 -15 19 61 81 132 108 209 253 223 422 l6 75 29
-61 c16 -34 35 -96 43 -138z m-2324 101 c-10 -9 -11 -8 -5 6 3 10 9 15 12 12
3 -3 0 -11 -7 -18z m-281 -55 c0 -5 -7 -17 -15 -28 -14 -18 -14 -17 -4 9 12
27 19 34 19 19z m-151 -156 c-3 -3 -11 5 -18 17 -13 21 -12 21 5 5 10 -10 16
-20 13 -22z m1498 12 c-3 -8 -6 -5 -6 6 -1 11 2 17 5 13 3 -3 4 -12 1 -19z
m-660 -20 c-3 -7 -5 -2 -5 12 0 14 2 19 5 13 2 -7 2 -19 0 -25z m1280 0 c-3
-7 -5 -2 -5 12 0 14 2 19 5 13 2 -7 2 -19 0 -25z m-1490 0 c-3 -8 -6 -5 -6 6
-1 11 2 17 5 13 3 -3 4 -12 1 -19z m-566 -11 c-10 -9 -11 -8 -5 6 3 10 9 15
12 12 3 -3 0 -11 -7 -18z m-21 -40 c-6 -7 -10 -7 -9 -2 2 6 -3 21 -10 35 l-13
25 22 -23 c17 -18 20 -26 10 -35z m877 -24 c-2 -16 -4 -3 -4 27 0 30 2 43 4
28 2 -16 2 -40 0 -55z m40 -5 c-2 -18 -4 -6 -4 27 0 33 2 48 4 33 2 -15 2 -42
0 -60z m210 0 c-2 -18 -4 -6 -4 27 0 33 2 48 4 33 2 -15 2 -42 0 -60z m620 0
c-2 -18 -4 -6 -4 27 0 33 2 48 4 33 2 -15 2 -42 0 -60z m40 15 c-2 -16 -4 -5
-4 22 0 28 2 40 4 28 2 -13 2 -35 0 -50z m210 -10 c-2 -16 -4 -3 -4 27 0 30 2
43 4 28 2 -16 2 -40 0 -55z m370 10 c-2 -16 -4 -5 -4 22 0 28 2 40 4 28 2 -13
2 -35 0 -50z m40 -15 c-2 -18 -4 -6 -4 27 0 33 2 48 4 33 2 -15 2 -42 0 -60z
m-1940 -5 c-2 -16 -4 -3 -4 27 0 30 2 43 4 28 2 -16 2 -40 0 -55z m40 15 c-2
-13 -4 -3 -4 22 0 25 2 35 4 23 2 -13 2 -33 0 -45z m580 0 c-2 -13 -4 -3 -4
22 0 25 2 35 4 23 2 -13 2 -33 0 -45z m80 10 c-2 -13 -4 -5 -4 17 -1 22 1 32
4 23 2 -10 2 -28 0 -40z m210 30 c-3 -8 -6 -5 -6 6 -1 11 2 17 5 13 3 -3 4
-12 1 -19z m91 -383 l8 -240 9 325 c9 301 10 315 16 190 4 -74 8 -223 10 -330
3 -195 3 -195 9 -75 4 66 8 197 10 290 4 249 18 137 19 -148 1 -171 -2 -236
-13 -260 -22 -53 -65 -247 -70 -317 -2 -36 -5 -74 -6 -85 l-1 -20 -9 20 c-5
12 -8 -80 -8 -225 0 -135 3 -231 7 -215 9 37 29 75 40 75 4 0 13 -10 20 -22
11 -23 11 -23 6 2 -3 14 6 1 20 -29 l25 -54 -41 -146 c-22 -80 -47 -171 -55
-201 -28 -104 -20 -116 -98 160 -24 85 -47 162 -50 170 -3 8 5 38 19 65 14 28
23 41 20 30 -5 -20 -5 -20 10 -1 8 11 15 24 15 30 0 21 30 -34 39 -71 6 -26 9
42 9 212 0 138 -3 237 -7 220 -5 -22 -9 -3 -14 65 -7 97 -45 273 -73 345 -13
33 -16 82 -15 285 1 138 6 249 12 255 5 5 9 -67 10 -195 1 -113 5 -232 9 -265
5 -40 8 20 9 185 3 308 17 423 21 170 1 -96 6 -236 9 -310 l8 -135 3 215 c1
118 6 265 10 325 l7 110 3 -160 c5 -268 16 -507 18 -395 5 261 17 555 20 480
2 -47 6 -193 10 -325z m69 358 c-3 -10 -5 -2 -5 17 0 19 2 27 5 18 2 -10 2
-26 0 -35z m420 -20 c-2 -16 -4 -5 -4 22 0 28 2 40 4 28 2 -13 2 -35 0 -50z
m204 25 c2 -20 0 -40 -4 -44 -4 -4 -7 14 -7 41 0 56 7 57 11 3z m-1534 -5 c-3
-10 -5 -4 -5 12 0 17 2 24 5 18 2 -7 2 -21 0 -30z m40 -15 c-2 -13 -4 -5 -4
17 -1 22 1 32 4 23 2 -10 2 -28 0 -40z m90 15 c-3 -10 -5 -4 -5 12 0 17 2 24
5 18 2 -7 2 -21 0 -30z m200 0 c-3 -10 -5 -4 -5 12 0 17 2 24 5 18 2 -7 2 -21
0 -30z m380 15 c-3 -8 -6 -5 -6 6 -1 11 2 17 5 13 3 -3 4 -12 1 -19z m370 -25
c-3 -10 -5 -2 -5 17 0 19 2 27 5 18 2 -10 2 -26 0 -35z m740 10 c-3 -10 -5 -4
-5 12 0 17 2 24 5 18 2 -7 2 -21 0 -30z m-1900 -5 c-3 -7 -5 -2 -5 12 0 14 2
19 5 13 2 -7 2 -19 0 -25z m290 0 c-3 -7 -5 -2 -5 12 0 14 2 19 5 13 2 -7 2
-19 0 -25z m740 -5 c-3 -10 -5 -4 -5 12 0 17 2 24 5 18 2 -7 2 -21 0 -30z
m250 5 c-3 -7 -5 -2 -5 12 0 14 2 19 5 13 2 -7 2 -19 0 -25z m210 0 c-3 -7 -5
-2 -5 12 0 14 2 19 5 13 2 -7 2 -19 0 -25z m80 0 c-3 -7 -5 -2 -5 12 0 14 2
19 5 13 2 -7 2 -19 0 -25z m130 0 c-3 -7 -5 -2 -5 12 0 14 2 19 5 13 2 -7 2
-19 0 -25z m80 0 c-3 -7 -5 -2 -5 12 0 14 2 19 5 13 2 -7 2 -19 0 -25z m-1280
0 c-3 -8 -6 -5 -6 6 -1 11 2 17 5 13 3 -3 4 -12 1 -19z m240 -10 c-3 -7 -5 -2
-5 12 0 14 2 19 5 13 2 -7 2 -19 0 -25z m-1193 -5 c-4 -16 -9 -32 -13 -38 -3
-5 -6 -13 -6 -17 0 -4 -34 -28 -75 -54 -41 -25 -85 -55 -97 -67 -13 -11 -25
-18 -28 -16 -2 3 24 27 60 53 36 26 65 50 65 52 0 7 -81 -52 -122 -88 -18 -16
-26 -26 -18 -22 8 4 -7 -17 -35 -47 -27 -29 -51 -56 -52 -58 -2 -2 -5 -2 -8 1
-3 3 13 24 36 47 23 23 40 43 37 46 -6 6 -66 -57 -122 -129 -68 -86 -177 -290
-176 -329 0 -7 15 22 32 63 37 87 114 220 158 270 48 54 35 26 -21 -47 -112
-146 -199 -383 -199 -543 0 -33 -5 -50 -15 -54 -25 -9 -17 -21 15 -23 29 -2
30 -1 30 45 0 163 75 383 182 540 71 104 226 246 318 292 58 29 52 23 -41 -39
-138 -92 -265 -234 -339 -379 -62 -123 -110 -307 -110 -423 l0 -49 -60 0 -60
0 0 49 c0 57 24 203 46 281 19 68 74 194 85 198 5 2 9 10 9 17 0 8 27 53 59
102 101 151 256 287 426 376 42 22 46 21 39 -10z m2109 2 c4 -8 2 -17 -3 -20
-6 -4 -10 3 -10 14 0 25 6 27 13 6z m-1483 -4 c0 -6 -4 -13 -10 -16 -5 -3 -10
1 -10 9 0 9 5 16 10 16 6 0 10 -4 10 -9z m-133 -113 c-2 -18 -4 -4 -4 32 0 36
2 50 4 33 2 -18 2 -48 0 -65z m213 25 c0 -37 -4 -63 -8 -57 -8 9 -4 124 4 124
2 0 4 -30 4 -67z m407 -15 c-2 -18 -4 -6 -4 27 0 33 2 48 4 33 2 -15 2 -42 0
-60z m44 -21 c-8 -8 -11 5 -10 49 l1 59 10 -48 c8 -35 7 -52 -1 -60z m408 -11
c-8 -8 -10 3 -5 49 7 78 9 81 13 16 3 -33 0 -58 -8 -65z m418 17 c-2 -21 -4
-6 -4 32 0 39 2 55 4 38 2 -18 2 -50 0 -70z m209 -21 c-13 -13 -16 9 -9 64 l8
59 3 -59 c2 -32 1 -61 -2 -64z m614 47 c185 -137 342 -356 408 -571 27 -87 54
-253 50 -308 -3 -39 -6 -45 -23 -42 -11 2 -23 9 -27 15 -6 9 -8 9 -8 1 0 -13
-29 -23 -47 -17 -8 3 -13 23 -13 53 0 126 -49 306 -120 437 -76 142 -157 234
-306 351 -15 12 -25 22 -20 22 4 0 36 -22 70 -49 224 -180 363 -438 382 -707
6 -79 10 -94 23 -92 29 6 11 173 -36 323 -65 209 -245 450 -407 546 -20 11
-36 25 -36 31 0 14 98 -58 161 -118 67 -63 137 -146 173 -201 14 -24 29 -43
31 -43 9 0 -47 84 -101 150 -55 68 -124 132 -211 194 -43 31 -53 43 -53 67 0
28 2 29 23 18 12 -6 51 -33 87 -60z m-2353 -1 c-2 -13 -4 -3 -4 22 0 25 2 35
4 23 2 -13 2 -33 0 -45z m82 -12 c-5 -6 -9 7 -8 35 l1 44 8 -35 c5 -20 5 -39
-1 -44z m128 12 c-3 -20 -4 -21 -11 -5 -5 9 -5 29 0 45 7 25 8 26 11 5 3 -13
3 -33 0 -45z m80 0 c-2 -13 -4 -3 -4 22 0 25 2 35 4 23 2 -13 2 -33 0 -45z
m173 6 c0 -34 -4 -53 -10 -49 -5 3 -10 28 -10 56 0 27 5 49 10 49 6 0 10 -25
10 -56z m40 11 c0 -25 -4 -45 -10 -45 -5 0 -10 20 -10 45 0 25 5 45 10 45 6 0
10 -20 10 -45z m580 0 c0 -25 -4 -45 -10 -45 -5 0 -10 20 -10 45 0 25 5 45 10
45 6 0 10 -20 10 -45z m203 3 c3 -21 2 -38 -4 -38 -5 0 -9 19 -9 42 0 49 5 47
13 -4z m47 -5 c0 -27 -5 -55 -10 -63 -7 -11 -10 3 -10 48 0 35 4 62 10 62 6 0
10 -21 10 -47z m157 -15 c-2 -13 -4 -3 -4 22 0 25 2 35 4 23 2 -13 2 -33 0
-45z m80 0 c-2 -13 -4 -3 -4 22 0 25 2 35 4 23 2 -13 2 -33 0 -45z m133 21 c0
-24 -4 -38 -10 -34 -17 10 -11 75 7 75 2 0 3 -18 3 -41z m77 -21 c-2 -13 -4
-3 -4 22 0 25 2 35 4 23 2 -13 2 -33 0 -45z m-1357 10 c0 -9 -4 -20 -10 -23
-6 -4 -10 9 -10 32 0 28 3 34 10 23 5 -8 10 -23 10 -32z m197 -5 c-3 -10 -5
-2 -5 17 0 19 2 27 5 18 2 -10 2 -26 0 -35z m540 -5 c-2 -13 -4 -5 -4 17 -1
22 1 32 4 23 2 -10 2 -28 0 -40z m213 23 c0 -17 -4 -33 -10 -36 -6 -4 -10 8
-10 29 0 20 5 36 10 36 6 0 10 -13 10 -29z m-830 -13 c0 -16 -3 -19 -11 -11
-6 6 -8 16 -5 22 11 17 16 13 16 -11z m697 -10 c-3 -7 -5 -2 -5 12 0 14 2 19
5 13 2 -7 2 -19 0 -25z m-910 0 c-3 -8 -6 -5 -6 6 -1 11 2 17 5 13 3 -3 4 -12
1 -19z m1120 0 c-3 -8 -6 -5 -6 6 -1 11 2 17 5 13 3 -3 4 -12 1 -19z m160 0
c-3 -8 -6 -5 -6 6 -1 11 2 17 5 13 3 -3 4 -12 1 -19z m-567 -178 c0 -142 -10
-235 -24 -219 -8 9 7 398 15 393 5 -3 9 -81 9 -174z m-290 -195 c-2 -5 -7 1
-11 15 -10 34 -11 335 -1 344 8 8 20 -342 12 -359z m-620 310 c0 -14 -4 -25
-10 -25 -5 0 -10 11 -10 25 0 14 5 25 10 25 6 0 10 -11 10 -25z m40 -15 c0
-22 -4 -40 -10 -40 -5 0 -10 18 -10 40 0 22 5 40 10 40 6 0 10 -18 10 -40z
m162 -12 c3 -27 2 -48 -3 -48 -5 0 -9 23 -9 52 0 62 5 60 12 -4z m48 5 c0 -27
-5 -55 -10 -63 -7 -11 -10 3 -10 48 0 35 4 62 10 62 6 0 10 -21 10 -47z m160
-5 c0 -38 -3 -49 -10 -38 -16 25 -11 90 7 90 2 0 3 -24 3 -52z m30 -72 c-7 -7
-9 8 -6 54 6 85 9 88 13 16 3 -34 -1 -64 -7 -70z m632 4 c-6 -9 -22 25 -17 38
3 8 6 30 7 50 1 25 3 18 7 -23 3 -33 5 -62 3 -65z m39 73 c2 -23 0 -45 -4 -49
-4 -4 -7 17 -7 46 0 62 7 64 11 3z m169 -9 c0 -34 -4 -53 -10 -49 -5 3 -10 28
-10 56 0 27 5 49 10 49 6 0 10 -25 10 -56z m40 6 c0 -27 -4 -50 -10 -50 -5 0
-10 23 -10 50 0 28 5 50 10 50 6 0 10 -22 10 -50z m170 4 c0 -19 -4 -34 -10
-34 -5 0 -10 18 -10 41 0 24 4 38 10 34 6 -3 10 -22 10 -41z m40 22 c0 -14 -4
-28 -10 -31 -6 -4 -10 7 -10 24 0 17 5 31 10 31 6 0 10 -11 10 -24z m-1240
-27 c0 -16 -4 -29 -10 -29 -5 0 -10 16 -10 36 0 21 4 33 10 29 6 -3 10 -19 10
-36z m197 -11 c-2 -13 -4 -5 -4 17 -1 22 1 32 4 23 2 -10 2 -28 0 -40z m543
17 c0 -19 -4 -35 -10 -35 -11 0 -14 53 -3 63 11 12 13 8 13 -28z m-950 -5 c0
-16 -4 -30 -10 -30 -5 0 -10 14 -10 30 0 17 5 30 10 30 6 0 10 -13 10 -30z
m1160 0 c0 -16 -4 -30 -10 -30 -5 0 -10 14 -10 30 0 17 5 30 10 30 6 0 10 -13
10 -30z m120 -1 c0 -16 -4 -28 -8 -25 -5 3 -8 15 -6 28 3 28 3 28 9 28 3 0 5
-14 5 -31z m90 -5 c0 -13 -4 -24 -10 -24 -5 0 -10 14 -10 31 0 17 4 28 10 24
6 -3 10 -17 10 -31z m120 32 c0 -3 -4 -8 -10 -11 -5 -3 -10 -1 -10 4 0 6 5 11
10 11 6 0 10 -2 10 -4z m-1410 -33 c0 -20 -3 -24 -11 -16 -7 7 -9 19 -6 27 10
24 17 19 17 -11z m210 0 c0 -20 -3 -24 -11 -16 -7 7 -9 19 -6 27 10 24 17 19
17 -11z m790 2 c0 -8 -4 -17 -10 -20 -6 -4 -10 5 -10 20 0 15 4 24 10 20 6 -3
10 -12 10 -20z m-1722 -53 c4 -24 -13 -30 -22 -9 -3 6 -3 2 0 -10 4 -18 -4
-27 -42 -49 l-46 -27 -20 24 -20 24 17 -29 c17 -28 17 -30 0 -42 -15 -11 -21
-10 -38 12 -11 14 -16 29 -11 33 58 48 138 94 148 84 3 -4 6 -1 6 6 0 21 25 6
28 -17z m892 -64 c0 -51 -3 -68 -10 -58 -13 20 -13 130 0 130 6 0 10 -31 10
-72z m210 6 c0 -52 -11 -71 -24 -39 -8 22 5 106 15 99 5 -3 9 -30 9 -60z m450
7 c0 -33 -4 -63 -10 -66 -6 -4 -10 18 -10 59 0 37 4 66 10 66 6 0 10 -26 10
-59z m210 2 c0 -32 -5 -65 -10 -73 -7 -10 -10 7 -10 58 0 41 4 72 10 72 6 0
10 -26 10 -57z m-1040 25 c0 -19 -2 -20 -10 -8 -13 19 -13 30 0 30 6 0 10 -10
10 -22z m210 -22 c0 -25 -4 -48 -10 -51 -6 -4 -10 13 -10 44 0 28 5 51 10 51
6 0 10 -20 10 -44z m790 -8 c-1 -45 -3 -51 -13 -36 -14 18 -11 88 4 88 5 0 9
-24 9 -52z m80 6 c0 -19 -4 -34 -10 -34 -5 0 -10 18 -10 41 0 24 4 38 10 34 6
-3 10 -22 10 -41z m116 9 c-11 -11 -17 4 -9 23 7 18 8 18 11 1 2 -10 1 -21 -2
-24z m734 30 c0 -5 -9 -19 -20 -33 -21 -26 -27 -12 -10 21 10 19 30 26 30 12z
m-1800 -38 c0 -19 -4 -35 -10 -35 -5 0 -10 16 -10 35 0 19 5 35 10 35 6 0 10
-16 10 -35z m210 -1 c0 -24 -4 -34 -12 -32 -24 8 -22 68 2 68 5 0 10 -16 10
-36z m530 1 c0 -19 -4 -35 -10 -35 -5 0 -10 16 -10 35 0 19 5 35 10 35 6 0 10
-16 10 -35z m1112 -11 c-2 -15 -1 -16 7 -5 8 12 12 13 25 1 17 -13 13 -49 -8
-62 -12 -8 -36 9 -36 26 0 6 -9 12 -21 12 -17 0 -16 -4 13 -29 18 -16 39 -32
47 -36 17 -10 7 -45 -12 -38 -41 17 -49 17 -24 1 15 -10 27 -25 27 -34 0 -12
2 -12 9 -2 7 11 14 11 42 -3 45 -23 44 -22 28 -42 -13 -16 -12 -17 4 -4 21 17
23 15 31 -30 6 -31 3 -39 -18 -53 -29 -18 -36 -11 -38 38 -1 19 -5 33 -9 30
-5 -3 -18 0 -30 7 -15 8 -19 8 -15 0 5 -7 -2 -11 -18 -11 -17 0 -26 5 -26 16
0 9 6 14 13 11 8 -3 13 3 13 14 0 12 -4 15 -10 9 -18 -18 -28 -10 -24 19 3 18
0 29 -6 28 -6 -1 -11 5 -11 13 0 8 -2 17 -5 20 -6 6 -40 79 -40 86 0 4 7 4 15
0 9 -3 15 0 15 9 0 9 6 24 12 35 11 17 15 18 33 6 11 -8 19 -22 17 -32z
m-1732 5 c0 -10 -4 -19 -10 -19 -5 0 -10 12 -10 26 0 14 4 23 10 19 6 -3 10
-15 10 -26z m710 1 c0 -19 -11 -26 -23 -14 -8 8 3 34 14 34 5 0 9 -9 9 -20z
m-920 0 c0 -5 -2 -10 -4 -10 -3 0 -8 5 -11 10 -3 6 -1 10 4 10 6 0 11 -4 11
-10z m-810 -55 c0 -33 -4 -37 -55 -62 -44 -22 -57 -25 -67 -14 -13 13 -12 14
59 72 19 15 54 38 61 39 1 0 2 -16 2 -35z m-137 -16 c18 -20 17 -22 -17 -55
-36 -35 -36 -35 -61 -17 -29 21 -30 26 -10 43 12 10 18 10 33 -1 16 -13 16
-12 2 5 -13 16 -12 20 5 32 25 18 27 18 48 -7z m1166 -40 c2 -46 0 -51 -13
-39 -16 12 -22 80 -10 93 14 13 20 -3 23 -54z m41 7 c0 -35 -5 -58 -15 -66
-13 -11 -15 -4 -15 54 0 52 3 66 15 66 11 0 15 -13 15 -54z m620 -12 c0 -58
-2 -65 -15 -54 -10 8 -15 31 -15 66 0 41 4 54 15 54 12 0 15 -14 15 -66z m38
19 c2 -27 -2 -44 -13 -53 -13 -11 -15 -6 -15 45 0 67 23 74 28 8z m-623 -3 c0
-18 -6 -35 -12 -37 -9 -3 -13 8 -13 37 0 29 4 40 13 38 6 -3 12 -20 12 -38z
m545 -6 c0 -24 -4 -34 -12 -32 -15 5 -22 42 -14 64 10 25 26 5 26 -32z m1204
23 c-1 -9 4 -13 11 -11 15 6 77 -66 73 -85 -2 -8 -11 -19 -21 -25 -14 -9 -25
-2 -72 49 -30 33 -54 64 -55 68 0 9 41 27 55 23 6 -2 9 -10 9 -19z m-1875 -41
c-14 -15 -22 0 -13 26 7 22 7 22 14 3 4 -11 4 -24 -1 -29z m785 28 c10 -25 7
-34 -9 -34 -9 0 -15 9 -15 25 0 28 15 34 24 9z m-1781 -21 c-7 -2 -13 -18 -13
-33 0 -16 -5 -32 -10 -35 -6 -4 -10 -12 -9 -18 4 -34 -1 -38 -53 -35 -49 4
-98 23 -98 39 0 7 57 32 75 33 6 1 12 4 15 7 8 10 84 48 95 48 6 0 4 -3 -2 -6z
m-213 -43 c16 -16 18 -25 10 -40 -10 -19 -12 -19 -35 -4 -27 18 -31 34 -13 52
15 15 14 16 38 -8z m80 5 c0 -8 -7 -15 -16 -15 -14 0 -14 3 -4 15 7 8 14 15
16 15 2 0 4 -7 4 -15z m2984 -1 c5 -12 2 -15 -10 -10 -8 3 -18 6 -20 6 -3 0
-2 5 1 10 9 15 22 12 29 -6z m-2812 -296 c-15 -15 -25 119 -16 219 l8 88 9
-149 c6 -95 5 -152 -1 -158z m439 151 c32 -29 57 -54 55 -56 -2 -2 -29 7 -59
21 -55 24 -56 25 -76 91 -27 85 -26 116 0 48 15 -39 36 -66 80 -104z m2217 6
c0 -63 -1 -66 -9 -30 -4 22 -8 72 -7 110 0 63 1 66 9 30 4 -22 8 -71 7 -110z
m-1526 83 l2 -53 3 53 c3 37 8 52 19 52 9 0 14 -11 14 -31 0 -18 7 -38 18 -45
16 -13 16 -14 0 -8 -10 3 -18 2 -18 -3 0 -17 -46 -33 -59 -20 -17 17 -14 107
4 107 11 0 15 -13 17 -52z m420 10 l1 -43 4 43 c3 28 9 42 19 42 20 0 20 -93
0 -109 -22 -19 -69 15 -62 43 3 12 6 31 6 44 0 13 6 22 15 22 11 0 16 -12 17
-42z m780 -43 c-16 -55 -22 -62 -67 -87 -80 -44 -85 -32 -14 31 47 43 69 71
80 103 21 64 22 22 1 -47z m-1242 40 c0 -24 -5 -35 -15 -35 -15 0 -22 50 -8
63 15 15 23 5 23 -28z m538 -2 c2 -20 -2 -32 -12 -36 -13 -5 -16 2 -16 34 0
48 23 50 28 2z m-1913 -3 c24 -26 13 -55 -15 -40 -17 9 -20 8 -20 -9 0 -11 5
-21 10 -23 7 -2 5 -11 -3 -23 -14 -18 -16 -18 -41 -2 -23 15 -24 20 -13 37 6
11 18 18 26 15 9 -4 11 0 7 11 -6 16 9 54 23 54 4 0 16 -9 26 -20z m411 -2
c-3 -13 -10 -50 -17 -83 -15 -79 -42 -150 -79 -209 -34 -54 -32 -71 4 -37 21
20 32 41 64 121 8 21 10 14 17 -47 6 -60 4 -76 -10 -95 -17 -23 -17 -22 -11
22 6 43 5 44 -9 20 -8 -14 -14 -21 -15 -16 0 5 -10 0 -22 -11 -31 -28 -55 -39
-103 -48 l-40 -7 41 30 c74 54 142 193 160 331 4 28 11 51 15 51 5 0 7 -10 5
-22z m2476 -98 c32 -132 81 -217 158 -273 l25 -18 -40 6 c-22 4 -58 18 -79 32
-29 19 -37 21 -33 9 12 -30 -2 -16 -22 22 l-20 37 6 -40 c3 -22 16 -54 29 -72
25 -33 107 -79 158 -87 45 -8 42 -14 -10 -22 -32 -5 -70 -2 -114 9 -71 17 -96
10 -56 -17 38 -24 109 -118 96 -126 -7 -4 -3 -13 10 -25 29 -26 25 -30 -25
-30 l-44 0 30 16 30 15 -38 26 c-50 34 -75 41 -108 28 -20 -8 -26 -7 -23 2 6
16 59 30 73 18 8 -6 18 -4 31 6 10 8 13 12 5 8 -9 -4 -12 -3 -7 4 3 5 -12 25
-34 44 -30 25 -38 38 -34 55 6 21 6 21 47 3 23 -10 58 -21 77 -25 34 -8 34 -7
-32 57 -37 36 -72 78 -78 93 -11 30 -4 135 10 135 10 0 35 -81 32 -105 -1 -14
1 -16 6 -7 7 9 13 8 27 -8 36 -39 47 -22 16 24 -50 72 -104 238 -100 309 1 20
2 20 6 2 2 -11 13 -58 25 -105z m368 69 c0 -5 -12 -11 -27 -15 -16 -3 -34 -8
-42 -10 -8 -3 -18 1 -23 8 -13 21 -9 31 7 18 13 -11 14 -10 10 3 -4 9 3 21 17
31 22 16 24 15 41 -5 9 -12 17 -25 17 -30z m-3154 -38 c-4 -25 -3 -30 3 -16 8
18 9 18 16 -8 4 -15 9 -26 12 -23 2 2 0 20 -5 40 l-10 36 44 0 c37 0 44 -3 44
-19 0 -11 -4 -23 -10 -26 -5 -3 -10 -14 -10 -24 0 -10 -9 -26 -20 -36 -19 -17
-20 -17 -21 1 -1 10 -4 3 -8 -16 -4 -25 -11 -35 -24 -34 -9 1 -18 -4 -18 -12
-2 -23 -4 -28 -16 -49 -7 -11 -13 -15 -13 -10 -1 6 -9 -6 -18 -25 -12 -24 -23
-34 -36 -32 -11 2 -15 -1 -11 -8 9 -14 -34 -102 -46 -94 -5 3 -9 -2 -9 -12 0
-20 -41 -94 -52 -94 -4 0 -9 8 -9 18 -1 16 -2 16 -6 0 -2 -10 -9 -18 -14 -18
-5 0 -9 -7 -9 -15 0 -8 7 -15 15 -15 13 0 14 -4 5 -21 -15 -27 -54 -22 -58 9
-2 15 2 22 15 23 17 1 17 2 1 6 -16 4 -18 17 -18 99 l0 94 28 1 c24 2 24 2 4
6 -30 6 -27 47 4 51 28 4 49 -21 36 -44 -12 -22 -4 -54 13 -48 7 3 16 1 20 -5
10 -17 21 -13 22 10 2 24 -25 37 -39 18 -10 -14 -3 46 9 77 4 10 0 12 -11 8
-9 -3 -27 -3 -40 0 l-25 6 16 53 c8 28 17 54 19 56 2 2 15 -4 29 -13 30 -20
30 -53 0 -48 -17 2 -17 1 -5 -7 22 -15 28 -14 35 12 13 42 55 127 62 127 33 0
85 -25 93 -43 l9 -22 0 21 c1 15 -9 26 -29 34 -16 7 -30 19 -30 26 0 8 -4 14
-10 14 -17 0 -11 18 11 39 20 19 23 19 46 4 21 -14 24 -22 19 -52z m344 -96
l-7 -130 -1 95 c-2 83 6 176 13 168 2 -2 0 -61 -5 -133z m2379 -115 c-2 -220
-15 -290 -70 -388 -33 -56 -145 -179 -155 -169 -3 3 -33 -8 -68 -23 -118 -54
-324 -81 -454 -60 -59 10 -90 21 -132 49 -52 35 -151 144 -149 166 0 5 8 -1
17 -15 68 -100 185 -178 279 -186 l48 -5 -55 19 c-98 33 -156 75 -221 159 -16
20 -16 21 5 32 19 9 18 10 -6 5 -18 -4 -28 -2 -28 6 0 6 6 8 13 5 6 -4 3 1 -8
11 -16 14 -17 16 -2 10 25 -9 43 -13 33 -8 -4 2 -3 8 4 12 8 5 7 9 -5 13 -9 4
-13 3 -10 -3 3 -6 -1 -7 -10 -3 -13 5 -14 7 -3 14 7 5 20 6 28 4 8 -2 22 0 30
5 10 6 0 8 -30 5 -43 -4 -44 -3 -19 10 22 12 33 11 85 -6 32 -11 84 -22 114
-24 l55 -4 -52 9 c-52 10 -167 49 -161 55 2 2 35 -5 73 -16 86 -23 117 -25
109 -4 -4 8 -14 15 -24 15 -11 0 -21 4 -24 9 -3 5 32 9 80 10 47 1 106 6 132
12 130 29 257 126 308 237 15 34 32 62 36 62 19 0 5 -64 -27 -127 -28 -54 -31
-62 -11 -38 13 17 32 55 42 85 19 57 34 84 34 61 0 -8 7 -19 15 -25 12 -10 11
-19 -10 -70 -13 -32 -38 -77 -56 -100 -32 -41 -32 -41 -3 -14 51 48 93 129
112 219 13 57 23 84 33 84 33 2 59 30 60 65 l1 35 9 -40 c4 -22 8 -88 8 -146
1 -156 -37 -286 -116 -399 l-25 -35 30 33 c40 44 88 142 109 222 14 51 18 104
18 242 0 101 3 166 8 150 4 -15 7 -115 6 -222z m246 203 c-4 -29 -3 -32 3 -13
7 23 9 21 20 -22 17 -67 15 -76 -10 -42 -13 16 -35 41 -50 56 -39 38 -37 58 6
58 34 0 35 -1 31 -37z m-1562 -31 c10 -23 17 -51 17 -61 0 -16 -4 -15 -31 10
-17 16 -37 29 -45 29 -19 0 -17 13 6 40 11 13 20 28 20 34 0 18 16 -7 33 -52z
m1771 42 c7 -19 9 -17 -23 -34 -33 -17 -51 2 -26 30 22 24 41 26 49 4z m-2787
-16 c-3 -8 -6 -5 -6 6 -1 11 2 17 5 13 3 -3 4 -12 1 -19z m1312 -4 c25 -31 26
-44 7 -44 -8 0 -29 -12 -47 -27 -26 -22 -31 -24 -26 -9 4 10 12 38 18 62 6 24
15 44 19 44 5 0 18 -12 29 -26z m1462 -105 c3 7 11 13 19 14 8 2 21 6 28 10 6
5 12 4 12 -2 0 -5 3 -16 6 -24 7 -18 -35 -30 -68 -19 -36 13 -56 5 -51 -22 4
-17 10 -22 24 -19 10 3 19 9 19 14 0 5 4 9 9 9 5 0 12 -17 16 -39 6 -37 7 -38
46 -36 32 2 39 -1 39 -16 0 -10 -9 -19 -22 -22 -20 -4 -19 -4 5 -6 23 -1 27
-5 27 -32 0 -30 -2 -31 -35 -27 -33 4 -35 2 -35 -27 0 -28 -3 -26 -40 33 -22
35 -47 89 -55 120 -10 40 -13 46 -10 19 l4 -37 -25 29 c-25 30 -32 47 -14 36
6 -3 10 -1 10 4 0 6 -9 11 -20 11 -24 0 -27 15 -4 24 25 10 34 7 34 -11 0 -9
3 -14 6 -10 3 3 0 31 -7 62 -11 48 -10 58 2 65 11 7 21 -5 45 -52 17 -34 33
-56 35 -49z m-96 55 c7 -39 -3 -54 -37 -54 -11 0 -15 6 -11 20 3 11 12 20 19
20 8 0 14 5 14 11 0 7 -10 9 -25 5 -31 -8 -32 7 -2 27 28 19 33 15 42 -29z
m-3230 22 c27 -19 13 -48 -21 -42 -34 7 -37 10 -29 35 7 24 24 27 50 7z m558
-44 c7 -9 12 -9 17 -2 9 15 49 -60 66 -126 19 -74 67 -164 107 -200 26 -23 28
-24 10 -4 -47 55 -100 190 -74 190 6 0 11 8 11 17 0 27 16 3 34 -52 9 -27 25
-61 36 -75 15 -18 12 -7 -10 40 -30 65 -38 110 -21 110 6 0 24 -28 40 -63 37
-76 104 -145 184 -188 81 -43 147 -59 245 -59 48 0 82 -4 82 -10 0 -5 -9 -10
-19 -10 -10 0 -21 -7 -25 -15 -8 -21 34 -19 114 5 78 24 84 24 45 3 -37 -20
-119 -42 -165 -44 -32 -2 -33 -2 -6 -6 15 -3 63 3 105 13 79 18 132 24 125 13
-2 -4 3 -10 12 -13 9 -3 12 -11 8 -18 -5 -8 -2 -9 11 -4 16 6 16 4 4 -11 -7
-10 -22 -26 -34 -36 -20 -17 -20 -17 0 -10 18 6 19 5 5 -13 -70 -89 -129 -133
-228 -166 l-57 -19 46 4 c25 2 72 16 103 30 61 28 163 117 177 156 5 13 12 21
16 18 16 -16 -83 -128 -152 -172 -72 -46 -182 -61 -328 -46 -104 11 -229 42
-254 63 -7 5 -23 11 -36 12 -76 9 -208 182 -237 311 -12 54 -21 245 -10 205 4
-14 15 -59 24 -101 19 -84 63 -186 101 -231 35 -41 31 -29 -9 32 -72 110 -108
288 -90 456 4 43 10 68 12 54 2 -14 9 -31 15 -38z m2808 31 c6 -17 5 -21 -7
-16 -7 3 -14 1 -14 -5 0 -21 -30 -21 -41 0 -10 18 -8 24 7 35 25 18 45 13 55
-14z m-2522 -209 c19 -36 82 -117 66 -84 -5 8 -14 22 -21 31 -12 14 -44 102
-44 122 0 5 5 5 10 2 6 -3 10 -15 10 -26 0 -11 4 -17 10 -14 5 3 16 -9 24 -27
l15 -33 -4 30 c-5 30 -5 30 11 -5 17 -38 62 -90 77 -90 9 0 6 40 -10 128 -7
42 8 42 90 1 68 -35 197 -115 197 -124 0 -3 -14 -14 -30 -24 l-31 -18 30 -12
c21 -9 35 -10 49 -2 25 14 32 14 32 1 0 -5 -11 -12 -25 -16 -14 -3 -22 -10
-19 -15 3 -5 -10 -12 -28 -16 -32 -7 -32 -7 -8 -14 16 -4 -2 -7 -51 -8 -130
-2 -233 41 -313 130 -51 57 -86 140 -85 202 1 41 1 40 14 -19 7 -34 23 -79 34
-100z m1751 133 c0 -37 -34 -134 -61 -175 -72 -109 -178 -163 -329 -168 -62
-2 -86 0 -70 5 14 5 18 9 9 10 -9 1 -26 10 -38 20 -13 11 -28 22 -34 24 -7 2
-9 7 -5 11 3 4 16 3 27 -3 25 -14 67 -5 75 15 3 8 1 12 -4 9 -13 -8 -50 13
-50 28 0 21 232 157 268 157 11 0 13 -13 9 -62 -3 -35 -9 -71 -12 -80 -5 -12
-2 -18 7 -18 15 0 55 48 75 90 10 22 12 23 13 5 1 -16 4 -14 12 9 8 21 13 25
19 15 6 -10 9 -8 9 8 0 12 5 25 10 28 27 17 -11 -85 -52 -138 l-32 -42 33 30
c41 38 90 132 98 190 3 25 10 45 14 45 5 0 9 -6 9 -13z m577 -97 c0 -14 4 -35
8 -47 9 -27 -10 -31 -42 -8 -20 14 -25 29 -38 125 l-6 45 38 -45 c21 -24 39
-56 40 -70z m236 58 c8 -27 6 -28 -29 -31 -21 -1 -29 3 -32 17 -8 37 52 51 61
14z m-3128 -87 c-13 -14 -15 -11 -15 26 0 67 13 86 22 33 6 -34 4 -48 -7 -59z
m2785 68 c0 -11 -4 -17 -10 -14 -5 3 -10 15 -10 26 0 11 5 17 10 14 6 -3 10
-15 10 -26z m-2848 -69 c-6 -36 -12 -46 -30 -48 -28 -4 -29 -18 -1 -25 20 -5
20 -7 4 -31 -27 -41 -35 -31 -35 40 0 58 4 71 33 111 29 42 32 43 35 22 1 -13
-1 -44 -6 -69z m3072 -120 c167 -280 251 -556 271 -887 l7 -113 -44 0 -45 0
-12 141 c-20 246 -69 438 -158 629 -56 119 -71 187 -46 206 17 13 16 14 -5 20
-13 4 -24 17 -28 33 -3 14 -12 41 -20 59 -8 18 -14 36 -14 40 1 13 47 -50 94
-128z m-2871 46 c-10 -14 -35 -35 -55 -48 -21 -13 -40 -29 -43 -36 -2 -7 -1
-10 4 -7 5 3 12 1 16 -5 7 -12 -70 -13 -100 -1 -17 7 -13 10 25 21 61 16 110
43 139 74 31 33 37 34 14 2z m-328 -69 c-7 -32 -17 -89 -21 -125 -4 -38 -19
-93 -34 -127 -71 -154 -126 -387 -136 -574 -4 -64 -11 -121 -16 -128 -6 -7 -4
-13 4 -15 7 -3 -9 -5 -36 -6 l-49 -2 6 137 c9 224 53 409 154 646 33 78 50
106 60 103 10 -4 13 -1 8 13 -3 12 8 41 31 80 20 34 38 60 40 59 1 -2 -4 -29
-11 -61z m211 38 c-25 -19 -46 -19 -46 0 0 10 10 15 33 15 30 -1 31 -1 13 -15z
m2852 3 c14 -14 16 -28 2 -28 -5 0 -14 9 -20 20 -12 22 -1 27 18 8z m290 -13
c2 -22 -2 -25 -33 -25 -28 0 -35 4 -35 19 0 15 8 21 33 24 17 2 32 5 32 5 0 1
2 -9 3 -23z m-2965 -25 c4 -15 -6 -30 -38 -57 -62 -51 -62 -59 -2 -62 53 -2
67 -7 67 -21 0 -4 -15 -3 -34 2 -31 10 -40 8 -85 -22 -50 -31 -57 -49 -23 -51
9 -1 1 -5 -18 -9 -19 -5 -36 -7 -38 -6 -1 2 7 15 19 29 12 16 16 27 9 27 -17
0 33 67 83 112 47 42 44 55 -7 38 -20 -6 -42 -9 -49 -7 -6 3 -3 6 8 7 11 0 36
9 55 20 44 24 47 24 53 0z m2967 -17 c-1 -25 -14 -53 -26 -53 -7 0 -20 14 -29
30 l-16 30 36 0 c19 0 35 -3 35 -7z m-2070 -21 c0 -9 -67 -32 -91 -32 -11 1
33 20 89 39 1 1 2 -3 2 -7z m700 -18 c43 -16 21 -18 -31 -2 -22 6 -39 15 -39
21 0 5 8 6 18 2 9 -4 33 -14 52 -21z m-1940 1 c0 -9 13 -44 29 -79 16 -35 34
-93 40 -129 23 -135 89 -298 135 -336 8 -7 2 12 -15 42 -30 56 -83 196 -76
203 2 2 16 -24 31 -57 15 -33 29 -59 32 -57 2 3 -5 30 -16 61 -21 60 -25 87
-12 87 4 0 15 14 25 31 16 29 21 31 55 26 64 -9 91 -24 97 -54 13 -61 70 -200
106 -260 22 -35 39 -67 39 -72 0 -18 -106 -76 -167 -92 -58 -14 -61 -16 -40
-26 13 -6 49 -16 81 -23 32 -6 56 -14 53 -16 -2 -3 -33 -11 -68 -19 l-64 -13
60 -1 c33 0 78 6 100 14 22 8 41 15 43 15 1 0 2 -13 2 -29 0 -34 -20 -86 -47
-121 -29 -37 -45 -83 -48 -137 -2 -26 -10 -88 -19 -137 -9 -49 -16 -103 -16
-120 l-1 -31 -21 40 c-72 138 -207 264 -343 322 -39 17 -46 23 -32 29 30 11
107 -4 155 -31 48 -27 56 -30 48 -16 -3 4 6 7 19 5 14 -1 48 -23 76 -48 54
-49 80 -55 38 -9 -13 14 -18 23 -10 18 16 -9 20 -16 -72 122 -108 162 -179
333 -212 512 -23 126 -19 401 6 401 5 0 9 -7 9 -15z m3091 -175 c1 -266 -85
-531 -243 -750 -70 -98 -75 -105 -57 -95 8 5 5 -3 -7 -16 -56 -64 -35 -57 43
15 18 16 36 27 40 23 3 -4 18 0 31 9 22 14 24 15 19 1 -4 -10 10 -6 41 14 47
29 127 47 157 35 12 -4 -6 -18 -62 -46 -47 -23 -107 -65 -147 -101 -63 -58
-145 -162 -159 -202 -10 -28 -24 -12 -25 29 -4 101 -50 266 -113 403 -33 72
-46 111 -36 111 1 0 26 -9 55 -20 34 -13 74 -20 115 -19 l62 1 -64 14 c-36 8
-66 16 -69 18 -2 2 23 10 55 16 32 7 69 18 83 26 l25 13 -27 1 c-35 0 -131 36
-159 59 l-22 17 52 86 c49 82 89 176 111 264 9 36 15 42 49 52 56 17 71 15 72
-10 0 -22 1 -22 9 -3 20 47 9 -35 -14 -106 -13 -41 -22 -76 -20 -78 2 -2 17
25 33 60 17 35 30 59 31 53 0 -21 -40 -127 -74 -190 -43 -82 -31 -83 17 -1 39
64 92 219 102 297 4 25 19 74 35 110 15 36 31 74 35 85 15 40 26 -36 26 -175z
m-3418 103 c4 -38 14 -100 23 -140 17 -69 17 -73 -3 -125 l-21 -53 -26 87
c-29 95 -46 182 -46 241 0 25 -5 40 -15 44 -9 3 -18 3 -21 0 -7 -7 14 -158 32
-232 8 -33 26 -88 39 -123 28 -70 31 -89 10 -52 -35 60 -95 307 -95 391 0 29
1 29 59 29 l58 0 6 -67z m3807 33 c0 -41 -26 -182 -47 -254 -25 -88 -24 -52 1
49 13 52 27 125 31 162 6 63 5 69 -12 65 -13 -2 -19 -13 -21 -38 -4 -63 -35
-221 -44 -226 -5 -3 -6 7 -3 23 4 18 3 24 -3 15 -17 -25 -42 66 -32 118 5 25
9 62 10 82 l0 36 60 1 60 0 0 -33z m-3278 -13 c-16 -21 -36 -51 -45 -68 -18
-35 -24 -26 -30 53 l-4 52 55 0 54 0 -30 -37z m2736 10 c4 -27 -5 -29 -30 -6
-24 22 -23 35 5 31 14 -2 23 -11 25 -25z m72 1 c0 -8 -4 -12 -10 -9 -5 3 -10
13 -10 21 0 8 5 12 10 9 6 -3 10 -13 10 -21z m290 -9 c0 -8 -2 -15 -4 -15 -2
0 -6 7 -10 15 -3 8 -1 15 4 15 6 0 10 -7 10 -15z m-3523 -65 c-7 -20 -14 -25
-19 -17 -14 23 -9 47 11 47 17 0 18 -3 8 -30z m3449 -214 c50 -142 85 -328 90
-473 l4 -123 -45 0 c-41 0 -45 2 -45 25 0 14 5 25 10 25 6 0 10 -7 10 -15 0
-10 10 -15 28 -15 l27 0 -7 113 c-12 203 -51 374 -128 563 -22 54 -40 105 -39
114 1 22 55 -100 95 -214z m-3325 43 c-56 -147 -94 -323 -107 -493 -4 -53 -11
-96 -17 -96 -18 0 9 239 45 390 31 133 98 315 106 291 2 -6 -10 -47 -27 -92z
m492 60 c23 -12 54 -30 69 -41 22 -15 27 -16 22 -4 -11 29 11 17 56 -30 50
-52 172 -134 270 -182 36 -18 95 -50 133 -72 83 -50 218 -96 335 -115 l87 -15
-70 6 c-178 13 -369 95 -631 269 -58 39 -120 78 -137 87 -17 10 -54 33 -82 52
-27 18 -63 41 -80 49 -16 9 -26 16 -22 17 4 0 27 -10 50 -21z m2362 13 c-22
-20 -153 -102 -162 -102 -6 0 -21 -9 -34 -21 -64 -56 -297 -196 -422 -253
-131 -60 -276 -98 -362 -95 -16 1 11 7 60 15 143 22 333 93 390 145 11 10 51
32 88 49 96 43 199 112 249 165 49 52 81 75 72 50 -8 -21 -4 -20 62 20 56 34
78 44 59 27z m-2316 -103 c2 -7 -1 -9 -9 -4 -9 5 -11 4 -6 -4 4 -6 16 -9 27
-6 13 5 31 -3 54 -22 18 -15 52 -40 74 -55 43 -29 47 -58 7 -58 -14 -1 -8 -6
19 -16 57 -22 86 -28 48 -10 -18 8 -33 22 -33 31 0 21 22 19 48 -5 12 -11 25
-20 30 -20 16 0 72 -63 78 -87 4 -13 10 -23 15 -23 5 0 9 -9 9 -20 0 -11 4
-20 8 -20 4 0 16 -14 26 -31 l19 -32 -26 6 c-17 5 -27 2 -30 -7 -3 -8 -16 -16
-29 -18 -20 -3 -17 -6 22 -28 50 -28 62 -54 29 -63 -17 -5 -37 8 -93 61 -39
37 -56 50 -37 30 20 -22 30 -41 26 -49 -5 -7 -4 -10 2 -6 12 8 51 -19 41 -28
-10 -10 -33 5 -95 65 -120 117 -221 261 -268 379 -34 88 -33 98 7 72 18 -11
34 -25 37 -32z m2307 26 c-17 -67 -51 -140 -105 -221 -68 -103 -224 -273 -273
-297 -18 -9 -29 -17 -25 -17 5 0 5 -5 2 -10 -4 -6 -11 -7 -17 -4 -6 4 22 40
63 82 l74 76 -71 -66 c-55 -52 -76 -66 -92 -61 -35 9 -26 36 20 62 38 22 40
25 21 32 -11 4 -24 12 -27 17 -3 6 -15 8 -26 5 -23 -6 -25 0 -10 27 16 29 50
45 61 29 7 -11 9 -11 9 2 0 23 27 31 52 18 12 -6 23 -7 27 -2 3 5 24 20 45 33
38 23 39 24 15 32 -13 5 -26 13 -29 17 -3 5 -20 6 -37 4 -29 -5 -33 -9 -33
-34 0 -24 -4 -29 -25 -29 -14 0 -25 -4 -25 -9 0 -5 -7 -11 -15 -15 -19 -7 -20
8 -1 26 7 8 16 23 20 34 3 11 20 33 36 49 27 26 32 27 54 16 17 -10 29 -10 42
-3 17 10 16 11 -8 9 -36 -3 -38 14 -3 33 15 8 39 25 53 38 14 12 28 22 33 22
4 0 26 16 50 36 31 26 49 34 65 30 13 -4 25 -2 29 3 3 5 -3 11 -12 13 -14 2
-10 8 17 25 46 28 53 28 46 -2z m397 -12 c2 -10 19 -65 35 -123 46 -156 87
-430 64 -430 -5 0 -12 39 -16 88 -10 130 -60 355 -103 470 -3 6 -1 12 5 12 5
0 12 -8 15 -17z m-3213 -130 c-29 -94 -48 -190 -59 -307 -11 -108 -21 -138
-21 -60 1 104 45 339 81 431 21 52 20 5 -1 -64z m908 -135 c31 -17 57 -55 154
-227 65 -113 170 -295 233 -404 63 -110 107 -196 98 -193 -14 6 -14 4 1 -19
10 -15 16 -38 14 -53 -2 -20 -36 31 -162 249 -215 372 -306 531 -306 537 0 3
-6 13 -13 21 -20 24 -69 111 -62 111 3 0 23 -10 43 -22z m1482 17 c0 -2 -26
-48 -58 -102 -33 -54 -113 -192 -179 -308 -214 -372 -294 -510 -304 -520 -15
-15 -10 38 6 59 11 14 12 22 4 27 -7 4 22 64 84 170 52 90 157 272 234 404 76
132 144 240 149 240 6 0 18 8 28 18 16 16 36 23 36 12z m146 -7 c8 -13 -30
-48 -52 -48 -21 0 -18 48 4 53 31 8 41 7 48 -5z m-1956 -77 c11 -21 14 -48 4
-38 -3 3 -22 -3 -42 -14 -44 -23 -95 -34 -119 -25 -14 6 -5 14 37 37 30 16 62
36 70 44 20 20 37 19 50 -4z m2214 -73 c-11 -17 -100 0 -132 25 -10 8 -9 13 3
27 15 16 19 15 74 -14 33 -17 57 -34 55 -38z m-1770 46 c3 -8 2 -12 -4 -9 -6
3 -10 10 -10 16 0 14 7 11 14 -7z m501 7 c-6 -4 -23 -11 -40 -14 l-30 -6 30
14 c35 16 54 19 40 6z m246 -6 c24 -10 28 -14 14 -14 -21 0 -78 28 -59 29 7 0
27 -7 45 -15z m-657 -35 l7 -25 -15 25 c-17 28 -21 50 -7 35 5 -6 12 -21 15
-35z m1041 0 c-24 -47 -10 -49 32 -4 20 21 31 29 25 18 -13 -24 -68 -74 -82
-74 -4 0 -6 10 -3 23 5 22 5 22 -11 2 -16 -19 -16 -19 -4 8 7 17 14 23 18 16
5 -6 12 3 19 22 6 18 14 30 17 27 3 -4 -2 -20 -11 -38z m-1503 -27 c21 -20 38
-43 38 -51 0 -12 -2 -12 -17 -1 -15 13 -15 12 -5 -7 20 -37 73 -76 162 -117
47 -22 96 -48 110 -57 14 -10 62 -37 108 -60 45 -23 82 -47 82 -52 0 -5 7 -16
15 -24 25 -25 17 -39 -8 -16 -13 12 -27 22 -33 22 -5 0 2 -9 15 -19 24 -18 22
-41 -4 -41 -7 0 -21 7 -29 16 -15 14 -16 14 -16 -1 0 -8 -7 -18 -15 -21 -9 -4
-15 -19 -15 -36 0 -18 4 -27 10 -23 6 4 8 15 5 24 -7 24 19 44 45 36 14 -5 19
-12 15 -23 -3 -8 0 -19 7 -23 11 -7 11 -12 0 -29 -7 -12 -8 -20 -2 -20 5 0 10
4 10 9 0 5 14 14 30 21 17 7 30 16 30 21 0 21 17 7 33 -26 9 -20 17 -37 17
-39 0 -2 -46 -9 -102 -16 -109 -14 -274 -8 -343 11 -69 19 -135 51 -128 62 3
6 1 7 -5 3 -19 -12 -95 34 -151 92 -48 50 -53 58 -48 89 3 19 18 56 34 81 l27
47 7 -30 c6 -30 6 -30 12 -5 3 14 8 59 11 101 4 77 26 139 48 139 7 0 29 -17
50 -37z m447 3 c9 -8 21 -15 26 -15 6 0 12 -8 14 -17 2 -14 -2 -14 -28 5 -17
12 -33 26 -36 32 -4 5 -10 7 -15 4 -5 -3 -11 -1 -15 4 -9 15 35 4 54 -13z
m-167 -1 c13 -18 9 -45 -7 -45 -26 0 -64 30 -58 46 6 17 53 16 65 -1z m316
-16 c-3 -8 -7 -3 -11 10 -4 17 -3 21 5 13 5 -5 8 -16 6 -23z m1141 17 c10 -12
7 -18 -18 -30 -41 -22 -51 -20 -51 8 0 33 48 48 69 22z m-909 -21 c0 -31 -31
-34 -86 -7 l-37 17 39 6 c78 12 84 11 84 -16z m390 15 l35 -1 -35 -19 c-46
-25 -90 -26 -90 -2 0 26 11 34 35 28 11 -3 36 -6 55 -6z m147 -22 c-3 -8 -6
-5 -6 6 -1 11 2 17 5 13 3 -3 4 -12 1 -19z m612 -92 c3 -52 9 -98 14 -102 4
-4 7 5 7 20 0 25 2 26 15 12 21 -21 55 -96 55 -122 0 -48 -178 -192 -219 -177
-8 3 -11 1 -7 -5 9 -15 -89 -49 -177 -63 -71 -11 -292 -8 -304 5 -3 3 -1 18 6
33 12 26 14 26 25 10 7 -9 17 -17 21 -17 4 0 2 7 -5 15 -7 9 -9 22 -5 32 5 10
7 24 6 31 -1 6 2 12 7 12 6 0 13 11 16 25 4 14 11 25 16 25 6 0 10 9 10 20 0
13 12 25 35 34 19 8 65 33 103 55 37 22 80 43 95 46 15 4 24 11 21 16 -3 5 16
21 42 36 38 23 146 115 188 160 20 21 29 -5 35 -101z m-472 69 c0 -8 -4 -15
-9 -15 -10 0 -11 14 -1 23 9 10 10 9 10 -8z m-1186 -16 c6 -12 8 -30 6 -41 -4
-16 -3 -17 9 -7 11 9 14 8 14 -6 0 -13 -5 -16 -22 -10 -13 4 -39 10 -58 15
-19 4 -30 8 -23 9 6 0 15 11 19 24 12 40 38 48 55 16z m149 11 c0 -5 -5 -10
-11 -10 -5 0 -7 5 -4 10 3 6 8 10 11 10 2 0 4 -4 4 -10z m1204 4 c9 -3 16 -12
16 -20 0 -7 9 -22 20 -32 20 -19 20 -19 -12 -17 -18 1 -43 -2 -56 -8 -25 -12
-49 3 -37 23 5 8 11 6 22 -7 13 -17 13 -16 3 5 -8 16 -8 28 0 42 11 21 19 24
44 14z m-1454 -66 c-3 -3 9 -17 25 -32 l30 -28 -37 27 c-21 15 -38 31 -38 36
0 5 -7 9 -16 9 -8 0 -12 5 -9 11 5 7 14 6 28 -4 12 -8 20 -17 17 -19z m987
-40 c-3 -8 -6 -5 -6 6 -1 11 2 17 5 13 3 -3 4 -12 1 -19z m-1927 -18 c0 -29
-2 -30 -45 -30 -32 0 -45 4 -45 14 0 11 9 13 34 9 28 -4 35 -2 41 16 9 30 15
26 15 -9z m1489 -10 c0 -10 -3 -8 -9 5 -12 27 -12 43 0 25 5 -8 9 -22 9 -30z
m78 -2 c-3 -8 -6 -5 -6 6 -1 11 2 17 5 13 3 -3 4 -12 1 -19z m268 -18 c-9 -41
-17 -33 -9 9 4 17 9 30 11 27 3 -2 2 -19 -2 -36z m-775 -16 c0 -3 -13 4 -30
16 -16 12 -30 24 -30 26 0 3 14 -4 30 -16 17 -12 30 -24 30 -26z m1335 36 c-3
-5 -16 -15 -28 -21 -19 -9 -19 -8 3 10 28 23 34 26 25 11z m-818 -42 c-3 -8
-6 -5 -6 6 -1 11 2 17 5 13 3 -3 4 -12 1 -19z m319 -29 c-18 -41 -21 -29 -4
18 7 19 14 30 16 25 1 -4 -4 -24 -12 -43z m434 28 c0 -2 -20 -18 -45 -36 -25
-18 -45 -30 -45 -27 0 6 79 66 87 66 1 0 3 -1 3 -3z m-2426 -98 c21 -282 120
-576 276 -823 47 -74 49 -102 3 -34 -163 239 -269 545 -299 861 -3 37 -10 67
-14 67 -5 0 -15 3 -24 6 -46 18 4 -318 81 -546 37 -110 132 -302 201 -405 32
-49 98 -137 146 -194 92 -108 111 -148 31 -62 -284 303 -462 713 -491 1129
l-7 92 45 0 45 0 7 -91z m1226 61 c8 -5 11 -10 5 -10 -5 0 -21 10 -35 21 -24
20 -5 13 30 -11z m2326 -56 c-23 -277 -118 -568 -262 -797 l-37 -59 -19 57
-19 56 23 37 c13 20 40 71 60 114 33 69 39 76 60 71 22 -6 22 -5 6 13 -16 18
-15 25 17 119 37 110 70 268 80 387 7 73 8 77 34 81 68 10 64 16 57 -79z m110
49 c-3 -21 -8 -69 -11 -108 -33 -372 -208 -764 -478 -1069 -34 -37 -63 -63
-65 -57 -2 6 22 39 54 74 262 283 430 660 474 1065 6 56 9 106 6 111 -3 4 -16
6 -30 4 -22 -5 -24 -10 -31 -94 -15 -199 -77 -422 -169 -615 -57 -119 -152
-274 -168 -274 -10 0 -11 -1 49 92 144 227 251 539 269 785 9 125 7 123 60
123 l46 0 -6 -37z m-3562 5 c3 -13 7 -57 11 -99 13 -176 77 -390 171 -576 l61
-122 -17 -52 -18 -52 -38 59 c-127 199 -228 503 -252 759 -10 99 -7 105 45
105 26 0 34 -5 37 -22z m3036 18 c0 -2 -8 -10 -17 -17 -16 -13 -17 -12 -4 4
13 16 21 21 21 13z m-1511 -46 c11 -24 11 -24 -3 -6 -9 11 -16 24 -16 30 0 12
5 7 19 -24z m-364 10 c3 -5 1 -10 -4 -10 -6 0 -11 5 -11 10 0 6 2 10 4 10 3 0
8 -4 11 -10z m1660 -154 c15 -79 19 -270 6 -316 -6 -22 -10 -17 -31 40 -14 36
-36 110 -50 165 l-25 100 40 46 c22 26 41 46 43 44 1 -1 9 -37 17 -79z m-2211
-36 c-3 -8 -14 -53 -24 -100 -10 -47 -29 -111 -43 -143 -21 -50 -25 -55 -31
-35 -10 38 -7 264 5 317 l11 51 44 -37 c29 -25 42 -43 38 -53z m637 34 c11
-14 10 -19 -10 -36 -27 -21 -41 -11 -41 30 0 27 31 30 51 6z m1469 -59 c0 -5
-5 -3 -10 5 -5 8 -10 20 -10 25 0 6 5 3 10 -5 5 -8 10 -19 10 -25z m-2090 -12
c-11 -17 -11 -17 -6 0 3 10 6 24 7 30 0 9 2 9 5 0 3 -7 0 -20 -6 -30z m2069
-7 c14 -58 14 -76 0 -56 -9 12 -9 11 -4 -5 12 -32 19 -380 8 -400 -8 -14 -11
-7 -17 31 -10 74 -51 191 -106 297 l-48 96 61 32 c34 17 66 35 72 40 16 16 22
10 34 -35z m-1971 -6 c34 -16 66 -30 72 -30 15 0 4 -34 -25 -80 -35 -56 -83
-182 -105 -270 -10 -46 -21 -84 -24 -87 -12 -12 -18 221 -7 310 6 55 9 103 6
108 -8 12 5 79 15 79 4 0 35 -13 68 -30z m152 -64 c0 -3 -4 -8 -10 -11 -5 -3
-10 -1 -10 4 0 6 5 11 10 11 6 0 10 -2 10 -4z m2217 -19 c3 -5 -2 -14 -11 -19
-20 -11 -21 -38 -2 -38 7 0 19 7 26 15 19 23 30 8 30 -41 0 -48 -11 -55 -42
-27 -16 15 -21 15 -28 3 -6 -10 -3 -18 11 -28 10 -7 19 -17 19 -21 0 -13 -47
-22 -75 -15 -28 7 -32 25 -10 44 11 9 13 16 6 23 -7 7 -16 5 -29 -6 -25 -22
-29 -22 -36 8 -14 54 19 100 42 59 5 -10 15 -14 21 -9 9 5 8 13 -3 31 -21 30
-20 32 7 36 30 5 66 -2 74 -15z m-2751 2 c4 -7 -1 -16 -10 -21 -18 -10 -22
-38 -4 -38 6 0 20 7 29 16 17 16 19 15 28 -8 11 -30 3 -78 -14 -78 -7 0 -18 7
-25 15 -9 11 -16 13 -23 6 -7 -7 -5 -16 6 -29 9 -10 17 -21 17 -24 0 -9 -56
-17 -79 -11 -24 6 -28 28 -6 37 19 7 20 36 1 36 -7 0 -19 -7 -26 -15 -7 -8
-16 -15 -20 -15 -11 0 -20 53 -13 79 6 24 31 28 39 6 8 -19 34 -20 34 -1 0 7
-7 19 -15 26 -8 7 -15 16 -15 21 0 13 88 11 96 -2z m618 -14 c9 -14 21 -37 26
-51 9 -22 8 -25 -5 -20 -9 3 -14 2 -10 -3 3 -5 20 -13 38 -16 17 -4 43 -17 55
-29 l24 -21 -29 -6 c-26 -6 -26 -7 8 -8 25 -1 51 -12 83 -37 26 -20 73 -50
104 -68 40 -22 58 -39 60 -55 3 -20 5 -21 20 -8 15 14 26 12 102 -13 l85 -28
-65 -30 c-113 -52 -174 -66 -300 -66 -89 -1 -128 4 -170 18 -81 29 -100 53
-100 130 0 73 8 88 27 49 l13 -28 -6 30 c-3 17 -16 55 -30 85 -35 77 -41 130
-18 169 23 40 64 43 88 6z m1510 3 c25 -35 19 -101 -14 -180 -16 -38 -30 -80
-29 -92 0 -13 2 -16 6 -6 14 44 16 45 23 20 12 -38 12 -102 0 -95 -6 3 -7 -1
-4 -10 7 -17 -20 -65 -37 -65 -6 0 -7 5 -3 11 4 7 -7 2 -23 -10 -60 -45 -269
-51 -392 -11 -111 35 -185 80 -133 80 9 0 45 9 79 19 44 13 64 16 72 8 8 -8
11 -7 11 4 0 8 16 23 35 32 44 21 56 21 49 2 -4 -8 -1 -15 5 -15 6 0 11 7 11
16 0 8 6 21 13 27 30 30 147 107 161 107 10 0 13 6 10 15 -4 9 0 15 10 15 9 0
16 7 16 14 0 8 12 21 27 28 16 7 28 20 28 28 0 16 45 78 57 79 4 1 14 -9 22
-21z m-1463 -5 c13 -16 12 -17 -3 -4 -10 7 -18 15 -18 17 0 8 8 3 21 -13z
m138 -29 c65 -64 167 -130 264 -169 58 -24 87 -42 99 -61 10 -16 16 -29 14
-31 -8 -9 -136 37 -154 55 -12 12 -28 22 -34 22 -9 0 -8 -4 2 -10 17 -11 10
-13 -14 -4 -9 3 -13 10 -10 15 3 5 -3 6 -12 2 -13 -5 -15 -3 -9 8 4 8 5 11 0
7 -7 -7 -65 17 -65 28 0 2 9 0 20 -6 11 -6 20 -8 20 -5 0 3 -18 14 -40 24 -22
10 -37 21 -33 25 4 4 0 4 -9 1 -12 -5 -23 2 -36 24 -10 17 -22 28 -25 25 -8
-9 -35 13 -49 40 -11 20 -10 20 8 6 19 -14 19 -14 0 7 -10 12 -21 22 -25 21
-16 -2 -22 3 -16 12 15 24 58 9 104 -36z m1199 26 c-14 -21 -34 -28 -22 -7 4
7 3 8 -2 4 -5 -5 -9 -16 -9 -25 0 -9 -5 -16 -12 -15 -6 1 -17 -5 -25 -15 -12
-16 -11 -16 7 -2 20 15 20 15 1 -8 -11 -12 -25 -21 -32 -18 -7 3 -18 -2 -24
-10 -7 -8 -9 -14 -5 -14 4 0 2 -7 -5 -15 -15 -18 -34 -20 -23 -2 4 6 -7 1 -24
-13 -17 -14 -28 -29 -25 -34 3 -5 -2 -7 -11 -3 -10 4 -16 2 -14 -5 1 -6 -4
-13 -12 -16 -9 -3 -11 0 -6 8 5 9 4 11 -4 6 -6 -4 -9 -11 -7 -15 3 -4 -11 -15
-30 -24 -47 -23 -57 -21 -14 3 19 11 31 19 25 19 -14 0 -82 -38 -70 -39 13 0
-16 -20 -30 -20 -5 0 -3 5 5 10 17 11 10 13 -14 4 -9 -3 -13 -11 -9 -17 4 -6
-4 -8 -23 -3 -21 5 -25 4 -14 -4 13 -8 13 -10 -2 -10 -9 0 -23 -3 -32 -6 -12
-5 -13 0 -7 23 8 30 18 36 124 79 85 34 167 87 232 151 41 41 57 50 88 51 35
2 36 1 25 -18z m30 -19 c-13 -16 -29 -32 -37 -35 -7 -4 0 9 15 28 35 42 55 48
22 7z m-1535 -25 c-3 -14 4 -51 15 -83 15 -46 19 -75 15 -140 -3 -46 -1 -95 5
-112 6 -17 10 -31 8 -31 -2 0 -20 13 -41 30 -29 23 -41 27 -55 20 -31 -17 -38
-11 -33 28 5 42 56 243 72 285 13 34 20 35 14 3z m236 -27 c57 -64 49 -63 -14
1 -27 28 -45 50 -40 49 6 -1 30 -23 54 -50z m1491 -160 c23 -103 25 -130 8
-128 -28 3 -40 -3 -93 -53 -39 -36 -68 -77 -93 -128 -45 -91 -82 -120 -153
-120 l-48 0 -4 38 c-3 30 -4 27 -5 -16 l-2 -53 48 6 c97 14 182 77 182 137 0
32 46 95 103 142 44 36 46 37 75 22 33 -17 42 -34 42 -79 l0 -32 -20 33 c-11
17 -24 32 -29 32 -22 0 -65 -49 -67 -76 -1 -16 -3 -32 -3 -36 -1 -5 -12 -8
-26 -8 -19 0 -25 5 -26 23 l0 22 -10 -23 c-5 -13 -6 -29 -3 -35 3 -7 -1 -4 -9
6 -14 16 -15 16 -19 -7 -4 -19 0 -25 19 -29 17 -3 23 0 23 13 0 9 6 17 13 17
6 0 22 3 34 7 35 11 49 -26 27 -72 -10 -20 -19 -47 -20 -58 -3 -31 -31 -80
-52 -96 -24 -17 -42 -70 -42 -120 0 -22 -4 -37 -8 -34 -5 3 -8 -14 -8 -37 1
-26 -3 -41 -10 -40 -7 1 -11 -3 -11 -10 0 -7 -1 -21 -1 -31 -2 -19 -2 -19 -23
0 -22 19 -22 19 -10 -3 17 -34 13 -55 -19 -93 -30 -34 -30 -35 -46 -15 -15 19
-15 19 -8 -10 7 -28 6 -29 -10 -16 -16 13 -16 12 -5 -13 11 -24 10 -29 -10
-49 l-22 -22 7 28 c4 20 1 33 -11 47 -21 23 -13 53 19 68 13 6 26 22 29 39 3
15 19 42 36 59 40 40 70 110 78 177 3 28 9 54 13 57 4 3 4 41 0 85 -7 84 -12
68 -15 -50 -2 -78 -30 -189 -46 -179 -7 4 -6 10 1 19 6 7 13 37 16 66 l4 54
-16 -55 c-10 -30 -17 -68 -16 -84 1 -31 -61 -145 -103 -186 -14 -14 -25 -30
-25 -36 0 -7 -11 -19 -25 -28 -24 -16 -25 -15 -25 3 0 32 20 68 47 82 30 16
62 76 79 149 7 30 20 80 29 110 19 67 20 124 2 117 -6 -2 -46 -12 -87 -22 -41
-9 -90 -21 -109 -26 -19 -4 -38 -6 -43 -3 -8 5 -4 76 8 132 6 29 26 24 35 -9
5 -19 8 -13 18 33 13 62 36 93 47 63 5 -13 9 -14 15 -4 6 10 13 10 35 0 l28
-12 -27 27 c-15 15 -27 36 -27 46 0 17 6 20 40 16 22 -2 41 -1 42 2 2 3 34 13
73 23 38 10 79 27 91 38 31 30 46 99 38 180 -5 52 -3 78 10 109 9 22 16 53 17
68 0 42 35 -50 59 -159z m-302 103 c-57 -48 -75 -57 -28 -14 25 23 49 41 53
42 4 0 -7 -12 -25 -28z m-1087 -38 c9 -11 2 -9 -18 6 -18 13 -33 25 -33 27 0
8 38 -17 51 -33z m1009 22 c0 -2 -8 -10 -17 -17 -16 -13 -17 -12 -4 4 13 16
21 21 21 13z m-920 -82 c0 -7 -58 25 -65 36 -3 5 10 1 29 -11 20 -12 36 -23
36 -25z m915 36 c-8 -13 -106 -70 -120 -70 -5 0 19 18 55 39 75 45 73 44 65
31z m-856 -66 c14 -12 -19 -1 -35 12 -18 14 -18 14 6 3 14 -6 27 -13 29 -15z
m691 -19 c0 -7 -43 -23 -78 -30 -19 -4 40 23 76 34 1 1 2 -1 2 -4z m-513 -41
c-3 -3 -12 -4 -19 -1 -8 3 -5 6 6 6 11 1 17 -2 13 -5z m383 -4 c-34 -11 -60
-11 -35 0 11 5 29 8 40 8 16 0 15 -2 -5 -8z m-343 -6 c-3 -3 -12 -4 -19 -1 -8
3 -5 6 6 6 11 1 17 -2 13 -5z m-1061 -48 c27 -13 67 -27 88 -31 25 -4 50 -18
68 -37 20 -21 28 -25 28 -14 0 9 4 16 9 16 19 0 32 -31 29 -67 -4 -37 -4 -37
-15 -13 -10 22 -12 23 -13 5 -1 -12 -4 -15 -7 -7 -4 10 -9 9 -24 -4 -13 -12
-19 -13 -19 -4 0 7 -7 10 -15 6 -8 -3 -15 -1 -15 3 0 5 -14 4 -31 -2 -26 -10
-36 -9 -67 9 -39 23 -59 53 -26 40 11 -4 35 -10 54 -12 l35 -4 -35 11 c-40 12
-70 36 -70 55 0 7 -5 16 -12 20 -7 5 -9 2 -6 -7 3 -8 0 -30 -8 -48 -14 -33
-14 -34 -65 -27 -63 9 -92 -8 -120 -67 l-20 -42 4 47 c2 26 14 60 27 77 21 31
145 120 166 121 5 0 32 -11 60 -24z m2517 -12 c16 -13 32 -24 35 -24 8 0 52
-39 71 -62 18 -24 30 -83 20 -99 -6 -10 -9 -8 -9 9 0 13 -14 37 -30 54 -29 28
-34 30 -84 24 -49 -7 -56 -5 -70 16 -9 12 -16 32 -16 43 -1 17 -3 17 -15 -6
-13 -24 -40 -40 -90 -53 -11 -3 -4 -3 15 -2 19 2 45 7 58 11 35 11 18 -17 -23
-39 -32 -18 -47 -18 -86 -2 -9 4 -23 1 -32 -8 -13 -14 -16 -14 -27 -1 -15 18
-34 20 -25 3 4 -7 -1 -4 -9 6 -16 19 -16 19 -16 -3 0 -13 -4 -19 -10 -16 -13
8 -2 77 14 87 18 12 26 9 26 -9 1 -13 5 -11 15 8 15 29 60 49 106 49 15 0 31
5 35 11 11 19 68 39 93 33 14 -3 38 -16 54 -30z m-2141 -26 c44 -34 98 -113
98 -142 -1 -19 -2 -19 -14 4 l-14 24 -5 -24 c-4 -23 -4 -22 -6 4 -1 27 -2 28
-14 12 -22 -30 -52 -16 -54 24 -1 33 -39 80 -63 80 -14 0 -40 -30 -40 -48 0
-12 -3 -13 -11 -5 -19 19 0 73 34 93 33 21 35 20 89 -22z m168 -63 c39 -8 87
-15 106 -15 43 0 45 -21 5 -61 -32 -32 -29 -38 7 -13 22 15 22 15 22 -40 l0
-56 -47 0 c-75 1 -115 33 -149 121 -9 24 -22 51 -29 59 -27 33 -29 43 -7 31
11 -6 53 -18 92 -26z m-219 12 c27 -21 27 -40 0 -87 -19 -33 -25 -59 -26 -101
0 -31 -3 -55 -7 -53 -3 2 -13 25 -22 51 -18 52 -22 128 -6 103 8 -12 10 -12
10 5 0 29 20 95 28 95 4 0 14 -6 23 -13z m718 -11 c24 -19 41 -73 41 -133 0
-47 4 -61 20 -73 11 -8 20 -21 20 -30 0 -13 2 -13 9 -1 8 12 11 9 16 -12 4
-15 11 -25 15 -22 5 3 11 -3 13 -12 3 -10 6 11 7 47 1 36 6 74 11 85 5 12 6
-233 3 -625 -4 -355 -7 -646 -9 -648 -1 -1 -25 35 -52 81 -48 77 -52 89 -68
199 l-17 118 46 72 c25 40 43 74 41 76 -2 2 -18 -4 -35 -13 -35 -18 -50 -10
-50 28 0 10 -14 54 -31 98 -32 80 -33 103 -4 79 14 -12 15 -9 9 27 -7 45 9
191 33 305 13 63 14 83 4 104 -7 16 -8 30 -3 33 5 3 6 39 2 81 -4 41 -8 61 -9
43 -2 -49 -11 -66 -27 -52 -21 17 -18 -20 6 -83 l21 -53 -22 -170 c-12 -93
-24 -172 -26 -175 -2 -2 -8 2 -13 9 -9 15 -14 -12 -26 -143 -5 -59 -8 -67 -18
-50 -7 12 -13 109 -16 274 -5 244 -5 250 -14 145 -11 -140 -2 -394 18 -462 19
-69 7 -69 -71 2 -40 36 -72 77 -94 120 l-34 65 36 103 c20 56 40 111 45 122 4
11 -13 -2 -39 -29 -26 -27 -47 -54 -47 -60 0 -6 -5 -4 -10 5 -5 8 -12 57 -16
107 -8 106 -4 112 65 87 24 -8 48 -12 53 -9 7 4 8 31 4 70 -6 61 -5 65 16 73
13 5 33 19 46 31 12 11 26 19 31 16 11 -7 31 71 31 122 0 21 3 42 7 46 9 9 64
-3 82 -18z m403 -56 c4 -41 11 -88 17 -105 l9 -30 1 27 1 26 31 -29 c17 -16
38 -29 46 -29 13 0 15 -10 10 -59 -3 -40 -1 -66 8 -77 11 -16 15 -16 54 -1 82
33 84 31 79 -83 -2 -54 -7 -102 -10 -106 -4 -3 -28 16 -54 42 -26 27 -44 40
-40 29 66 -180 68 -189 52 -246 -9 -30 -32 -74 -51 -98 -36 -45 -122 -117
-130 -109 -3 2 3 38 12 79 18 84 22 391 5 514 -7 53 -8 22 -4 -125 3 -116 0
-231 -7 -284 -13 -105 -30 -136 -32 -58 -1 29 -3 57 -4 62 -1 6 -3 34 -4 63
-1 46 -3 50 -15 34 -15 -19 -18 -4 -50 238 -13 94 -12 103 6 150 11 28 22 61
25 75 4 24 4 24 -16 6 -21 -19 -21 -19 -21 20 0 77 -18 70 -22 -9 -2 -58 0
-77 10 -77 10 0 9 -7 -3 -29 -13 -27 -13 -38 6 -128 14 -62 22 -139 23 -210 0
-62 3 -113 6 -113 4 0 11 5 18 12 21 21 14 -26 -13 -83 -13 -30 -27 -73 -31
-96 -3 -24 -8 -43 -10 -43 -3 0 -21 7 -41 15 -19 8 -37 15 -39 15 -2 0 11 -22
30 -48 66 -95 66 -93 45 -223 -18 -115 -20 -120 -95 -244 l-24 -40 0 40 c0 22
-2 315 -4 650 -2 336 -1 572 3 525 4 -57 9 -79 15 -68 4 10 12 16 16 13 4 -3
10 5 13 16 3 12 10 18 16 14 7 -3 11 2 11 14 0 11 9 22 20 26 17 6 20 15 20
74 0 110 26 154 85 148 17 -2 21 -12 27 -77z m664 43 c4 -21 13 -46 21 -55 11
-12 13 -28 8 -60 -6 -38 -30 -98 -39 -98 -1 0 -3 23 -4 51 -1 33 -9 65 -26 96
-32 56 -32 68 -4 87 32 23 36 20 44 -21z m-2262 -72 c19 -28 58 -75 86 -106
27 -30 50 -59 50 -63 -1 -4 -16 -17 -34 -28 l-34 -22 -35 37 c-19 20 -53 60
-75 89 -35 45 -40 56 -32 78 13 32 30 64 34 64 2 0 20 -22 40 -49z m2762 4 c7
-19 14 -41 14 -50 0 -12 -69 -102 -125 -163 -10 -11 -19 -9 -48 8 -21 12 -37
24 -37 26 0 2 36 48 80 101 44 53 80 100 80 105 0 21 23 4 36 -27z m-1726 -46
c0 -15 -4 -31 -10 -34 -5 -3 -10 3 -10 13 0 11 -3 35 -6 53 -5 32 -5 33 10 15
9 -11 16 -32 16 -47z m655 38 c-2 -7 -6 -25 -10 -42 -6 -26 -8 -28 -17 -12 -7
13 -6 27 2 48 12 27 34 33 25 6z m-1132 -4 c10 -3 16 -12 13 -19 -6 -15 19
-15 41 -1 8 5 24 -5 43 -27 34 -38 93 -64 155 -68 l40 -3 0 64 c0 43 4 66 13
68 14 5 42 -54 42 -92 0 -14 5 -25 10 -25 6 0 10 9 10 20 0 11 4 20 10 20 18
0 30 -39 30 -101 0 -59 -1 -61 -22 -55 -13 4 -52 13 -88 21 -36 8 -82 19 -102
24 l-38 9 0 -43 c0 -23 9 -71 20 -105 11 -34 20 -72 20 -84 0 -32 49 -117 87
-151 19 -17 36 -44 39 -62 6 -32 6 -32 -20 -20 -14 7 -26 18 -26 25 0 7 -12
25 -27 40 -28 27 -73 95 -95 145 -7 15 -16 27 -21 27 -5 0 -4 6 2 14 10 11 9
27 -1 70 -15 68 -28 74 -17 9 12 -71 9 -83 -7 -38 -9 22 -18 85 -21 140 -3 55
-10 107 -14 115 -6 10 -8 3 -4 -20 3 -19 2 -58 -3 -87 -5 -29 -5 -50 -1 -47 4
2 11 -12 14 -33 15 -91 37 -144 76 -189 22 -25 43 -59 46 -75 3 -16 12 -29 19
-29 7 0 21 -11 30 -25 16 -25 16 -27 -4 -46 -17 -15 -20 -24 -12 -44 6 -16 6
-25 0 -25 -17 0 -32 41 -26 68 5 20 4 23 -4 12 -8 -12 -10 -10 -10 10 0 20 -2
22 -10 10 -9 -12 -17 -8 -46 25 -34 38 -35 46 -19 90 l8 20 -16 -20 c-14 -19
-16 -19 -22 -2 -4 9 -5 24 -1 32 3 9 0 15 -8 15 -15 0 -29 27 -21 39 7 12 -16
144 -27 159 -6 6 -7 12 -3 12 3 0 -7 11 -24 25 -16 14 -33 36 -36 48 -4 12 -9
30 -12 41 -4 13 -1 17 8 12 9 -5 9 -3 -1 6 -8 7 -23 27 -32 44 -16 28 -16 33
-2 53 11 15 22 20 33 16 9 -4 24 -10 34 -12z m440 -85 c-10 -18 -20 -6 -15 19
5 24 6 25 12 8 4 -11 6 -23 3 -27z m717 12 c0 -11 -4 -20 -10 -20 -5 0 -10 9
-10 20 0 11 5 20 10 20 6 0 10 -9 10 -20z m-1702 -103 c44 -50 48 -57 33 -57
-14 0 -131 142 -131 159 0 10 11 2 28 -19 15 -19 46 -56 70 -83z m2759 70
c-24 -37 -119 -138 -125 -133 -2 3 26 41 63 86 38 44 70 78 73 75 3 -2 -2 -15
-11 -28z m-2389 -5 c5 -35 -25 -62 -68 -62 -22 0 -48 -8 -63 -20 -28 -22 -57
-26 -57 -9 0 8 -5 8 -15 -1 -8 -7 -15 -17 -15 -22 0 -5 -9 -28 -20 -50 -11
-23 -20 -46 -20 -51 0 -5 -16 -28 -36 -50 -35 -38 -36 -42 -32 -98 4 -56 3
-58 -14 -42 -45 40 -42 131 6 203 14 22 26 46 26 53 0 17 36 50 73 65 15 6 27
16 27 22 0 16 62 50 90 50 14 0 39 9 55 20 37 25 59 22 63 -8z m1992 8 c14
-11 41 -20 61 -20 29 0 43 -7 67 -34 16 -19 40 -37 53 -41 36 -11 59 -35 59
-62 0 -12 4 -23 9 -23 17 0 61 -103 61 -144 0 -36 -30 -106 -45 -106 -2 0 -2
19 1 43 8 53 -14 109 -51 133 -21 13 -25 23 -20 41 3 15 2 22 -4 19 -5 -4 -12
6 -15 22 -7 31 -46 94 -46 75 0 -19 -31 -16 -65 7 -16 11 -46 20 -65 20 -29 0
-39 6 -54 30 -14 25 -15 34 -6 45 16 20 30 19 60 -5z m-1931 -54 c26 -28 21
-46 -14 -46 -12 0 -26 -7 -29 -16 -4 -10 -14 -14 -25 -11 -13 3 -27 -4 -41
-20 -19 -22 -27 -24 -61 -19 -34 5 -39 4 -39 -14 0 -23 -56 -90 -76 -90 -18 0
-17 22 4 85 14 42 21 50 45 53 16 2 45 15 65 28 21 14 47 24 62 22 18 -2 30 4
42 25 22 33 38 34 67 3z m1869 -1 c13 -17 30 -25 50 -25 16 0 46 -11 66 -25
20 -14 48 -25 61 -25 14 0 25 -1 25 -3 0 -1 9 -27 20 -57 11 -30 20 -60 20
-67 0 -41 -77 19 -86 67 -6 28 -8 30 -45 24 -32 -5 -42 -2 -63 19 -15 15 -33
24 -40 21 -8 -3 -20 3 -27 14 -7 11 -19 18 -26 15 -7 -3 -20 -2 -30 1 -14 6
-12 11 12 36 35 36 38 37 63 5z m-1475 -182 c3 -71 9 -136 13 -146 6 -16 9
-15 26 10 l19 28 -7 -50 c-4 -27 -8 -52 -10 -54 -2 -2 -15 6 -30 18 -36 28
-74 95 -74 130 0 16 -9 54 -20 87 -11 32 -18 64 -15 71 5 16 41 31 71 32 20 1
21 -5 27 -126z m1110 110 c10 -6 6 -38 -18 -133 -9 -36 -18 -75 -21 -86 -5
-29 -63 -90 -73 -78 -5 5 -12 25 -16 44 l-7 35 25 -29 24 -29 6 48 c4 26 7 92
7 147 l0 98 32 -5 c17 -3 36 -8 41 -12z m-1395 -48 c12 -3 27 -41 50 -122 18
-64 31 -118 28 -120 -2 -2 -31 36 -66 85 -60 86 -113 189 -104 204 3 4 21 -4
40 -17 20 -13 43 -27 52 -30z m-167 -29 c-33 -90 -59 -205 -67 -298 -7 -85 -7
-88 -32 -88 l-25 0 6 98 c4 81 25 190 53 279 4 15 4 15 -4 3 -21 -32 -54 -189
-59 -282 l-6 -98 -28 0 c-26 0 -29 3 -29 33 0 65 22 212 43 286 22 75 23 76
57 79 19 2 38 9 42 15 14 22 9 -8 -12 -69 -43 -124 -66 -334 -36 -334 10 0 16
23 21 88 4 48 16 121 26 162 21 80 61 191 67 185 2 -2 -5 -28 -17 -59z m1829
59 c0 -29 -123 -235 -140 -235 -4 0 3 32 16 72 13 40 24 82 24 94 0 16 13 30
43 47 43 26 57 31 57 22z m114 -77 c27 -72 52 -187 61 -290 5 -52 10 -68 22
-68 14 0 15 12 10 88 -6 74 -16 124 -61 292 l-7 25 16 -25 c15 -24 16 -24 10
-2 -6 21 -4 22 22 16 15 -4 31 -9 35 -13 20 -18 66 -272 68 -378 0 -8 -13 -13
-30 -13 -30 0 -30 0 -32 63 l-2 62 -3 -62 c-4 -59 -6 -63 -28 -63 -22 0 -24 5
-30 68 -9 101 -33 215 -60 291 -24 66 -30 89 -20 80 2 -3 16 -35 29 -71z
m-1854 -24 c12 -19 20 -37 18 -40 -5 -4 -68 15 -68 21 0 9 20 55 24 55 2 0 14
-16 26 -36z m1800 -3 c0 -21 -49 -46 -62 -33 -15 15 -5 47 14 47 9 0 20 3 24
7 10 11 24 -1 24 -21z m559 -254 c44 -119 81 -222 81 -227 0 -6 -72 -10 -195
-10 -123 0 -195 4 -195 10 0 6 68 10 185 10 102 0 185 2 185 4 0 2 -36 99 -80
216 -44 117 -80 217 -80 223 0 29 24 -25 99 -226z m-2909 171 c-10 -29 -45
-126 -79 -216 -34 -89 -61 -164 -61 -167 0 -3 85 -5 189 -5 116 0 192 -4 196
-10 4 -7 -65 -10 -199 -10 -158 0 -206 3 -206 13 0 21 162 447 171 447 4 0 0
-24 -11 -52z m239 12 c13 -11 21 -23 18 -26 -7 -7 -77 45 -77 58 0 10 25 -3
59 -32z m314 20 c16 -15 -3 -50 -26 -50 -36 0 -49 14 -41 44 6 24 10 27 33 21
14 -4 30 -10 34 -15z m1815 -5 c15 -33 15 -36 -3 -29 -8 4 -17 -1 -21 -9 -9
-23 -37 -13 -45 16 -6 22 -3 27 19 36 38 13 38 14 50 -14z m269 -22 c-21 -19
-42 -32 -45 -28 -4 4 11 22 32 41 51 44 63 33 13 -13z m-319 -193 c3 -63 8
-104 12 -90 4 18 14 26 33 28 25 3 27 0 27 -32 0 -19 -6 -37 -12 -39 -10 -4
-10 -8 1 -15 8 -6 11 -18 6 -31 -6 -18 -12 -21 -41 -15 -28 5 -34 3 -34 -12 0
-23 -6 -16 -14 19 -5 21 -3 27 9 27 9 0 13 -4 10 -10 -3 -5 -1 -10 4 -10 6 0
11 9 11 20 0 13 5 18 15 14 10 -4 15 0 15 10 0 14 -8 16 -39 13 l-38 -4 -32
141 c-18 78 -35 148 -37 157 -3 12 5 20 26 27 16 6 30 17 31 24 1 7 10 -14 21
-47 14 -40 22 -99 26 -175z m-1732 197 c-4 -18 -1 -23 16 -24 34 -3 39 -16 24
-73 -7 -30 -19 -82 -26 -115 -23 -111 -22 -110 -63 -107 -29 2 -37 -1 -37 -14
0 -10 5 -14 15 -10 11 4 15 -1 15 -18 0 -17 -8 -25 -35 -33 -28 -9 -35 -8 -35
2 0 7 -3 20 -6 29 -4 11 -1 16 10 16 9 0 16 5 16 10 0 6 -7 10 -15 10 -10 0
-15 11 -15 35 0 33 2 35 34 35 30 0 35 -3 38 -27 2 -16 7 15 11 67 8 107 36
240 50 240 5 0 7 -10 3 -23z m-62 -53 c10 -7 16 -19 14 -30 -3 -15 -10 -18
-33 -16 -38 5 -46 12 -39 38 6 22 27 25 58 8z m1690 -15 c11 -54 8 -59 -29
-59 -29 0 -35 4 -35 20 0 14 6 20 16 18 10 -2 19 3 21 10 3 6 -1 12 -7 12 -10
0 -10 4 0 15 19 22 27 18 34 -16z m176 -10 c0 -13 -7 -19 -22 -20 -22 -1 -22
-1 2 -8 47 -13 33 -71 -17 -71 -23 0 -25 3 -21 35 2 19 1 35 -3 35 -4 0 -9 11
-11 25 -5 26 9 34 50 27 13 -3 22 -12 22 -23z m-1726 -4 c4 -14 13 -25 21 -25
18 0 20 -27 3 -32 -7 -3 -6 -7 5 -11 12 -4 17 -1 17 10 0 14 3 14 12 5 7 -7
13 -20 13 -30 0 -10 7 -16 18 -16 11 1 32 -16 52 -45 39 -52 40 -55 22 -73 -7
-7 -30 -35 -52 -61 -31 -39 -36 -50 -24 -58 12 -8 12 -10 -1 -18 -8 -6 -11
-13 -7 -17 4 -4 2 -12 -3 -19 -7 -9 25 -28 118 -72 l128 -60 38 -167 c20 -93
35 -170 33 -172 -2 -3 -17 12 -33 33 -32 43 -256 325 -264 333 -3 3 -25 29
-49 58 -45 54 -49 72 -12 52 12 -6 21 -8 21 -6 0 3 -15 13 -32 22 -18 9 -35
18 -37 20 -2 2 31 47 74 99 42 53 75 98 73 101 -3 2 -35 -34 -73 -81 -37 -48
-69 -85 -70 -83 -2 2 5 39 16 83 23 97 24 116 5 90 -8 -12 -20 -16 -35 -12
-11 3 -19 1 -15 -4 3 -5 14 -9 26 -9 18 0 19 -4 13 -37 -9 -51 -11 -53 -49
-53 l-32 0 21 97 c19 86 25 98 46 104 l24 7 -24 1 c-17 1 -21 5 -17 17 3 9 6
24 6 35 0 27 17 23 24 -6z m-589 -98 c-14 -37 -25 -72 -25 -77 0 -5 42 -11 93
-13 l92 -3 -106 -2 -107 -2 28 73 c15 39 31 81 35 92 4 11 9 15 11 9 3 -6 -7
-41 -21 -77z m439 67 c17 -7 20 -35 10 -96 -6 -35 -9 -38 -40 -38 l-34 0 0 54
c0 83 13 99 64 80z m1650 -99 c9 -44 23 -104 30 -132 8 -29 11 -53 8 -52 -4 0
-26 25 -50 55 -37 47 -40 54 -22 54 21 0 25 16 14 58 -4 14 -13 22 -23 19 -17
-3 -18 -8 -6 -44 10 -34 -10 -28 -41 12 -26 35 -26 36 -8 50 10 7 29 11 42 8
13 -3 22 -1 22 6 0 6 -7 11 -15 11 -14 0 -14 4 1 32 20 40 26 30 48 -77z m610
22 c14 -37 26 -72 26 -77 0 -6 -38 -9 -97 -8 l-98 2 88 3 c48 2 87 8 87 12 0
5 -11 39 -25 75 -14 37 -25 70 -25 73 0 18 19 -18 44 -80z m-538 26 c3 -16 8
-36 11 -45 3 -15 -2 -18 -31 -18 -40 0 -41 1 -50 53 l-7 37 35 0 c31 0 36 -4
42 -27z m152 -61 c3 -20 0 -23 -25 -20 -20 2 -29 9 -31 26 -3 20 0 23 25 20
20 -2 29 -9 31 -26z m-1450 -21 c4 -44 -14 -85 -50 -116 -43 -36 -52 -31 -22
15 21 32 25 46 20 76 -8 39 7 67 33 62 10 -2 17 -16 19 -37z m1019 28 c6 -6 8
-30 5 -55 -4 -39 -1 -50 28 -85 l32 -41 -33 18 c-19 9 -42 26 -52 37 -22 25
-40 92 -32 117 7 22 35 26 52 9z m101 -21 c17 -17 15 -31 -3 -24 -9 3 -15 0
-15 -9 0 -15 -12 -20 -23 -9 -7 7 13 54 23 54 3 0 11 -5 18 -12z m196 -6 c3
-5 8 -27 12 -50 6 -37 4 -41 -17 -45 -22 -4 -22 -4 4 -6 15 0 27 -7 27 -14 0
-8 -9 -13 -20 -13 -10 1 -18 -3 -17 -9 1 -5 12 -9 23 -7 17 2 23 -4 27 -25 3
-16 4 -29 3 -30 -1 -1 -18 2 -38 8 -32 8 -37 14 -43 49 -4 22 -4 44 0 50 3 5
2 10 -3 10 -11 0 -32 76 -24 85 9 8 60 6 66 -3z m-1020 -19 c23 -79 33 -208
17 -218 -15 -8 -81 27 -81 43 0 9 7 13 20 9 19 -5 20 0 20 89 0 86 11 121 24
77z m417 -82 c1 -88 2 -91 21 -85 32 10 17 -18 -21 -40 -19 -11 -36 -15 -41
-10 -10 10 6 173 21 211 15 40 20 22 20 -76z m-631 38 c0 -18 -18 -9 -23 12
-4 16 -3 18 9 8 8 -6 14 -15 14 -20z m886 -27 c-9 -8 -36 13 -36 27 0 31 15
33 27 4 6 -15 10 -29 9 -31z m238 -13 c31 -39 56 -75 56 -80 0 -9 -224 -119
-242 -119 -5 0 -6 5 -3 11 4 6 0 16 -9 22 -14 10 -3 19 74 56 49 25 90 48 90
51 0 4 -13 24 -30 46 -32 42 -37 55 -18 52 7 -2 13 3 14 10 4 33 5 32 68 -49z
m-1276 41 c3 -8 0 -10 -8 -5 -8 5 -11 3 -8 -6 7 -20 -10 -49 -28 -49 -9 0 -22
-7 -30 -15 -37 -36 -31 -10 8 39 42 54 58 62 66 36z m1186 -37 c48 -60 52 -75
14 -49 -12 9 -19 16 -15 16 5 0 5 5 2 10 -5 8 -11 8 -20 0 -18 -15 -69 52 -52
69 18 18 24 14 71 -46z m-200 20 c-11 -54 -15 -60 -25 -35 -6 16 -4 28 8 42
23 26 25 25 17 -7z m-897 5 c3 -47 14 -92 25 -99 10 -7 10 -9 1 -9 -7 0 -13
-5 -13 -11 0 -7 10 -9 24 -7 23 5 26 0 44 -76 11 -45 21 -73 21 -63 1 16 3 16
31 2 30 -16 43 -39 15 -29 -8 4 -15 2 -15 -4 0 -6 6 -13 13 -15 6 -3 2 -6 -10
-6 -12 -1 -24 5 -26 12 -2 6 -3 -1 -1 -17 3 -23 1 -27 -13 -22 -9 4 -20 1 -24
-6 -4 -7 -10 -10 -12 -8 -3 3 -19 61 -36 130 -17 69 -28 108 -25 88 5 -42 -4
-47 -46 -23 l-25 14 29 1 c21 0 27 4 22 16 -3 9 -8 34 -11 57 l-5 42 15 -35
14 -35 -5 47 c-3 26 -3 51 1 57 8 14 12 14 12 -1z m86 -49 c3 -10 1 -19 -3
-19 -4 0 -6 -9 -3 -21 4 -16 11 -19 29 -15 20 5 24 1 31 -36 8 -41 12 -45 88
-86 84 -45 59 -51 -27 -6 -55 28 -68 30 -68 9 0 -8 5 -15 12 -15 16 0 101 -51
95 -57 -3 -2 -36 12 -75 31 l-70 35 -16 73 c-30 137 -30 139 -13 132 8 -3 17
-14 20 -25z m-398 -11 c-9 -39 -20 -55 -43 -61 -9 -2 -5 -3 9 -1 19 2 32 -5
48 -26 24 -33 26 -46 9 -54 -7 -3 -3 -3 8 -1 16 4 28 -4 49 -30 15 -20 25 -38
24 -39 -2 -2 -15 -9 -28 -16 -23 -12 -27 -10 -54 20 -15 17 -26 38 -23 46 3 9
-1 14 -12 14 -18 0 -52 39 -65 73 -4 10 -2 38 4 63 11 41 13 44 46 44 34 0 34
-1 28 -32z m1275 16 c0 -14 -3 -15 -17 -3 -10 7 -20 15 -22 16 -2 2 5 3 17 3
14 0 22 -6 22 -16z m-1358 -19 c-5 -28 -22 -24 -22 6 0 10 6 19 14 19 9 0 12
-8 8 -25z m515 -7 c-3 -8 -6 -5 -6 6 -1 11 2 17 5 13 3 -3 4 -12 1 -19z m714
-24 c-19 -61 -21 -94 -6 -94 8 0 16 9 16 20 1 11 2 23 3 28 1 4 6 22 10 40 11
48 25 30 15 -20 -5 -24 -12 -58 -16 -77 -5 -31 -14 -37 -110 -83 -57 -28 -106
-48 -108 -46 -3 3 3 15 14 27 13 15 20 18 24 9 2 -7 7 -10 11 -7 11 11 -6 40
-20 35 -8 -3 -14 -2 -14 2 0 4 32 21 70 39 39 18 72 38 75 45 2 7 9 39 15 72
7 35 15 55 21 49 6 -6 6 -21 0 -39z m152 20 c-3 -9 0 -20 8 -25 21 -13 29 -11
23 6 -7 18 -4 18 33 3 15 -6 37 -10 48 -9 11 0 -14 -17 -55 -38 -93 -50 -102
-50 -97 -8 2 17 2 24 0 15 -2 -10 -11 -18 -19 -18 -8 0 -12 5 -9 10 3 6 -4 10
-16 10 -17 0 -20 4 -15 23 3 12 6 28 6 35 0 22 50 14 60 -10 8 -22 9 -22 9 -2
1 11 4 24 7 27 11 11 23 -3 17 -19z m-818 -9 c14 0 23 -10 29 -31 7 -23 21
-37 54 -53 24 -12 42 -24 39 -27 -3 -3 -23 4 -46 15 -48 25 -51 25 -51 7 0 -8
14 -19 30 -25 28 -9 70 -41 55 -41 -3 0 -32 13 -64 29 -52 27 -59 34 -65 68
-3 21 -8 49 -11 63 -3 15 -2 19 2 10 5 -8 17 -15 28 -15z m-233 -9 c-2 -10 4
-16 14 -16 15 0 15 -3 -4 -20 l-22 -21 -47 25 c-32 17 -41 25 -28 26 11 0 31
7 45 15 30 17 46 14 42 -9z m862 -32 c-7 -31 -14 -57 -16 -59 -7 -6 -119 -55
-126 -55 -4 0 2 7 13 16 17 12 18 16 5 24 -17 11 -13 16 32 39 18 10 35 27 36
37 6 31 24 43 21 14 -5 -39 15 -36 24 4 5 20 12 36 17 36 4 0 2 -25 -6 -56z
m-1220 38 c2 -4 7 -23 11 -42 l6 -35 -40 -3 c-38 -2 -41 0 -42 23 -1 14 -2 30
-3 37 -1 7 10 15 24 19 35 10 38 10 44 1z m1822 2 c18 -5 21 -10 14 -32 -4
-17 -13 -26 -23 -26 -21 2 -22 -15 -2 -30 14 -10 14 -14 1 -31 -10 -15 -18
-17 -33 -10 -18 9 -18 13 -5 73 7 34 17 62 20 62 4 0 17 -3 28 -6z m-1530 -49
c15 -12 16 -16 5 -24 -7 -5 -10 -14 -7 -20 9 -14 -5 -14 -41 0 -26 10 -27 11
-9 24 10 8 15 18 11 24 -9 16 18 13 41 -4z m1433 4 c37 -13 37 -14 11 -41 -11
-12 -20 -27 -20 -32 0 -6 9 0 20 14 13 17 20 20 20 10 0 -35 -15 -42 -61 -30
-58 16 -62 19 -48 36 6 8 10 17 7 19 -3 3 -22 -16 -42 -42 -50 -66 -78 -101
-100 -126 -10 -12 -30 -38 -45 -57 -14 -19 -28 -37 -31 -40 -3 -3 -39 -48 -80
-100 -40 -52 -78 -99 -83 -105 -12 -13 -6 22 35 199 l33 140 155 73 c154 74
155 74 171 54 24 -29 43 -27 24 2 -8 13 -12 27 -8 30 8 9 4 9 42 -4z m-1353
-44 c12 -9 14 -14 5 -15 -7 0 -11 -6 -8 -15 9 -21 -8 -27 -38 -13 -24 11 -25
13 -10 24 9 7 14 17 10 23 -9 16 18 13 41 -4z m944 4 c0 -6 9 -8 20 -4 32 10
23 -13 -11 -30 -37 -19 -42 -16 -33 19 6 25 24 37 24 15z m-1250 -41 c0 -16
-17 -8 -29 15 -6 12 -9 14 -7 5 7 -23 -62 -48 -75 -27 -12 19 -11 29 4 30 6 1
22 3 35 4 12 1 26 5 29 9 7 7 43 -22 43 -36z m373 -20 c2 -18 3 -34 2 -36 -1
-1 -14 3 -29 9 -29 14 -35 29 -10 29 10 0 14 6 10 15 -3 9 0 15 8 15 8 0 16
-14 19 -32z m941 17 c-4 -8 -1 -15 5 -15 33 0 -1 -24 -96 -70 -97 -47 -108
-50 -119 -35 -8 11 -18 14 -26 9 -16 -10 -48 -16 -48 -8 0 7 262 134 277 134
7 0 10 -7 7 -15z m275 4 c38 -13 39 -20 3 -60 -26 -29 -30 -31 -53 -19 -13 7
-26 14 -28 16 -3 3 40 74 45 74 1 0 15 -5 33 -11z m-1610 -40 c6 -18 11 -33
11 -35 0 -1 -14 -6 -32 -9 -24 -6 -35 -3 -45 11 -20 27 -16 41 15 52 39 15 39
15 51 -19z m1745 18 c13 -9 16 -20 12 -34 -9 -28 -27 -34 -51 -17 -15 12 -17
18 -7 39 13 28 21 30 46 12z m-1593 -137 c97 -122 136 -178 95 -137 -23 22
-29 22 -21 -3 4 -12 2 -20 -5 -20 -7 0 -9 -8 -4 -22 7 -25 -66 52 -100 104
-10 16 -21 27 -24 24 -3 -3 1 -13 9 -22 11 -14 10 -19 -11 -35 -32 -24 -37
-24 -50 2 -13 22 1 49 26 49 26 0 24 20 -11 83 -37 68 -43 92 -22 100 6 3 13
6 13 6 1 1 48 -58 105 -129z m1529 109 c0 -5 -16 -42 -36 -81 -31 -62 -34 -72
-20 -80 20 -11 21 -42 2 -57 -19 -16 -45 14 -28 31 17 17 15 33 -3 18 -10 -9
-15 -9 -15 -1 0 6 5 11 10 11 19 0 10 18 -12 23 -30 8 -34 2 -14 -28 15 -23
15 -28 2 -47 -42 -59 -194 -198 -217 -198 -41 0 7 68 271 392 19 23 36 35 45
32 8 -4 15 -10 15 -15z m-1450 -87 c0 -13 -47 -35 -59 -28 -5 4 -19 20 -31 36
l-21 29 28 15 c27 15 29 14 56 -15 15 -16 27 -33 27 -37z m1315 56 c31 -14 32
-27 1 -63 -22 -26 -28 -27 -50 -17 -32 14 -32 24 -4 62 25 35 20 33 53 18z
m-945 -13 c32 -16 38 -30 18 -38 -18 -7 12 -29 30 -22 7 3 10 0 7 -5 -3 -6 -1
-10 5 -10 6 0 13 7 16 15 9 23 24 7 24 -25 l0 -28 -32 15 c-18 9 -35 19 -38
22 -7 8 -73 32 -77 28 -1 -2 33 -21 77 -42 44 -22 80 -42 80 -46 0 -4 2 -14 5
-22 4 -10 -17 -24 -74 -50 -44 -21 -84 -37 -89 -37 -13 0 -33 123 -22 134 5 5
13 6 17 2 4 -4 1 -11 -7 -16 -22 -14 25 -13 51 0 15 8 19 7 19 -4 0 -8 -6 -16
-12 -19 -7 -2 -10 -8 -6 -12 5 -5 16 -1 26 8 23 21 36 22 28 2 -7 -18 4 -19
28 -2 15 11 9 16 -54 45 -66 30 -72 31 -88 16 -15 -16 -17 -16 -23 7 -14 48
-11 61 11 49 16 -9 20 -8 20 5 0 8 6 14 13 13 6 -2 11 5 9 15 -4 21 1 21 38 2z
m62 1 c7 4 8 2 4 -4 -4 -6 -13 -9 -21 -6 -8 4 -12 11 -8 17 5 8 8 7 11 -1 2
-7 9 -9 14 -6z m1056 -31 c-3 -22 -26 -30 -46 -17 -10 7 -10 15 -3 36 10 24
13 25 31 14 12 -8 19 -21 18 -33z m-1690 9 c2 -14 -5 -24 -23 -32 -31 -14 -45
-8 -45 18 0 39 63 52 68 14z m1246 -1 c-8 -34 -15 -42 -21 -25 -3 6 -11 12
-19 12 -9 0 -12 -5 -8 -12 5 -10 3 -10 -7 0 -12 11 -10 16 11 32 36 28 52 26
44 -7z m-584 -3 c0 -5 -2 -10 -4 -10 -3 0 -8 5 -11 10 -3 6 -1 10 4 10 6 0 11
-4 11 -10z m494 -76 c-8 -36 -17 -70 -20 -75 -3 -5 0 -9 5 -9 6 0 11 7 11 15
0 18 16 20 23 3 4 -10 8 -10 15 1 13 18 21 1 15 -32 -6 -29 -18 -35 -26 -14
-4 9 -8 9 -15 -2 -8 -11 -12 -10 -21 5 -8 14 -11 15 -11 4 -1 -43 -16 -44 -99
-5 -45 21 -81 41 -81 44 1 20 41 51 113 87 45 23 87 43 93 43 8 1 8 -18 -2
-65z m-1129 7 c-8 -27 -43 -33 -56 -10 -12 23 -5 37 25 48 25 10 40 -9 31 -38z
m215 5 c27 -37 27 -39 0 -66 -19 -19 -19 -19 -50 20 l-31 39 23 20 c12 12 24
21 27 21 3 0 17 -15 31 -34z m1215 14 c16 -18 16 -20 -5 -55 -25 -41 -27 -41
-60 -15 -21 16 -23 21 -12 32 11 11 15 10 23 -5 6 -9 15 -15 20 -12 5 4 3 15
-6 27 -11 16 -12 25 -3 35 14 18 22 16 43 -7z m203 -1 c5 -25 -27 -52 -44 -38
-17 14 -18 31 -2 47 16 16 42 11 46 -9z m-1175 -66 c10 -43 17 -82 17 -88 0
-32 17 -36 64 -15 57 24 67 25 60 5 -4 -8 -1 -15 5 -15 28 0 4 -19 -69 -55
-49 -24 -83 -35 -88 -30 -7 9 -63 237 -62 257 0 3 10 4 22 0 14 -3 19 -2 14 6
-4 7 -1 12 6 12 9 0 20 -28 31 -77z m542 58 c-3 -6 -11 -11 -16 -11 -5 0 -4 6
3 14 14 16 24 13 13 -3z m171 2 c8 -11 13 -13 14 -5 0 6 5 12 11 12 7 0 9 -10
4 -27 -9 -36 -14 -41 -26 -23 -7 13 -10 13 -18 1 -13 -19 -23 3 -15 34 7 30
12 31 30 8z m-866 -121 c-1 -4 -9 -17 -20 -30 l-19 -23 -30 32 c-17 18 -31 34
-31 37 0 3 10 16 22 30 l23 23 27 -30 c16 -17 28 -35 28 -39z m1058 46 l21
-23 -28 -37 -28 -38 -23 25 -23 24 24 36 c13 19 27 35 30 35 3 0 15 -10 27
-22z m-1276 -75 c-25 -18 -45 -16 -60 8 -11 17 -10 23 10 39 23 19 23 19 45
-7 20 -25 20 -28 5 -40z m612 32 c16 -24 15 -25 -13 -40 -39 -20 -55 -19 -47
2 4 9 1 20 -5 24 -8 4 -2 12 17 23 16 8 30 15 30 16 1 0 9 -11 18 -25z m851
14 c4 -5 -1 -19 -11 -30 -16 -18 -19 -18 -27 -4 -17 31 20 65 38 34z m-604 -9
c10 -6 19 -15 19 -21 0 -6 -4 -8 -9 -4 -5 3 -12 1 -16 -5 -3 -5 -1 -10 6 -10
9 0 10 -3 3 -10 -12 -12 -64 6 -64 21 0 36 25 48 61 29z m-650 -121 c16 -24
17 -28 4 -39 -12 -10 -21 -8 -49 14 -51 38 -67 56 -60 67 3 6 1 16 -6 24 -9
10 -7 16 7 24 15 9 24 4 51 -27 19 -20 42 -49 53 -63z m48 70 c20 -27 21 -34
11 -60 -15 -34 -21 -36 -44 -10 -17 18 -16 20 3 26 12 3 21 13 21 21 0 12 -4
12 -24 -1 -32 -21 -43 -3 -19 30 10 13 21 25 24 25 3 0 15 -14 28 -31z m701 6
c58 -29 60 -30 60 -10 0 8 5 15 10 15 6 0 10 -4 10 -10 0 -5 9 -10 20 -10 11
0 20 -3 20 -7 0 -22 -22 -83 -29 -83 -14 0 -161 72 -167 81 -3 5 2 9 11 9 12
0 15 6 10 20 -8 26 -5 25 55 -5z m260 -44 l-11 -22 -19 23 c-10 13 -22 20 -26
16 -4 -5 1 -17 10 -27 10 -11 15 -25 11 -30 -9 -16 -18 -13 -38 14 -18 25 -17
26 9 61 l27 35 25 -24 c20 -21 22 -28 12 -46z m-1177 -3 c-18 -18 -24 -19 -37
-8 -22 18 -20 33 7 46 16 8 26 7 37 -3 12 -11 12 -16 -7 -35z m610 18 l16 -35
-41 -3 c-23 -2 -43 -8 -45 -14 -5 -15 67 -26 84 -12 10 8 13 6 13 -6 0 -14
-18 -16 -142 -16 -78 0 -138 3 -134 7 7 7 216 111 227 112 3 1 13 -15 22 -33z
m364 -80 c4 -3 -59 -6 -138 -6 -85 0 -138 4 -130 9 7 5 15 23 17 40 2 18 8 40
14 51 10 18 16 16 121 -34 60 -30 113 -56 116 -60z m393 104 c12 -7 7 -16 -25
-49 -22 -23 -48 -41 -57 -41 -10 0 -18 -6 -18 -13 0 -8 -8 -21 -19 -31 -17
-15 -19 -15 -32 0 -11 14 -7 21 36 59 29 24 56 40 64 37 9 -4 12 -1 7 7 -4 6
-2 18 4 26 14 17 20 18 40 5z m-1310 -49 c0 -3 -3 -16 -6 -28 -7 -27 -26 -29
-48 -8 -14 14 -14 18 2 33 15 17 52 19 52 3z m225 -35 c26 -34 26 -35 10 -67
l-17 -32 -21 22 -22 22 24 18 c14 10 19 21 13 24 -5 4 -15 0 -22 -8 -14 -17
-30 -20 -30 -5 0 11 29 60 36 60 1 0 15 -15 29 -34z m834 -21 c0 -12 -57 -81
-62 -74 -2 2 -9 17 -15 33 -11 25 -10 32 14 63 l27 36 18 -24 c10 -13 18 -28
18 -34z m-1000 2 c8 -10 7 -19 -3 -33 -13 -17 -17 -17 -40 -5 -24 14 -25 15
-9 33 19 21 36 23 52 5z m284 -23 c3 -3 1 -19 -5 -35 -9 -27 -14 -29 -59 -29
-48 0 -48 0 -38 26 5 15 12 31 15 35 6 10 77 12 87 3z m107 -16 c0 -40 -14
-49 -62 -46 l-44 3 8 33 c8 30 11 32 53 32 40 0 45 -2 45 -22z m100 -13 l0
-35 -50 0 c-50 0 -50 0 -44 28 10 41 12 42 55 42 38 0 39 -1 39 -35z m44 19
c12 -32 6 -54 -14 -54 -16 0 -20 7 -20 35 0 37 22 49 34 19z m66 -25 c0 -22
-5 -29 -20 -29 -23 0 -24 7 -10 45 12 33 30 24 30 -16z m100 29 c0 -7 3 -23 6
-35 6 -22 3 -23 -45 -23 l-51 0 0 35 c0 35 0 35 45 35 29 0 45 -4 45 -12z
m109 -19 c6 -18 11 -34 11 -35 0 -2 -17 -4 -37 -4 -29 0 -34 3 -25 12 14 14
16 38 3 38 -5 0 -12 -11 -15 -25 -7 -26 -26 -35 -26 -12 0 6 -3 22 -6 35 -6
20 -3 22 39 22 42 0 46 -2 56 -31z m104 -4 l17 -35 -34 0 c-30 0 -33 2 -28 25
2 15 0 25 -7 25 -6 0 -11 -11 -11 -25 0 -34 -16 -32 -28 4 -13 36 -8 41 38 41
32 0 38 -4 53 -35z m-860 13 c11 -9 15 -21 11 -35 -8 -28 -24 -29 -55 -4 -20
16 -21 21 -10 35 16 19 31 20 54 4z m67 -20 c0 -5 -9 -4 -20 2 -11 6 -18 15
-14 21 6 11 34 -7 34 -23z m913 -20 c8 -6 5 -14 -13 -28 -22 -17 -27 -17 -40
-4 -13 13 -12 17 10 35 l25 20 -25 -7 -25 -7 20 22 19 22 9 -23 c4 -12 13 -26
20 -30z m61 36 c4 -10 -1 -22 -11 -30 -25 -18 -31 -17 -38 7 -11 34 37 55 49
23z m-975 -33 c10 -7 11 -13 2 -30 -13 -23 -13 -23 -35 -15 -19 7 -21 25 -4
42 14 14 19 15 37 3z m62 -31 c6 0 7 -9 4 -20 -4 -14 -2 -20 8 -20 9 0 17 4
19 10 5 15 48 -1 49 -19 0 -9 6 -3 14 14 7 17 11 33 8 38 -2 4 115 7 261 7
282 0 274 1 267 -42 0 -5 3 -8 9 -8 5 0 10 -9 10 -19 0 -17 -18 -31 -41 -31
-14 0 -11 38 4 43 20 9 -15 6 -43 -3 -14 -5 -18 -8 -9 -9 19 -1 34 -41 16 -41
-7 0 -22 -3 -34 -6 -18 -5 -23 -2 -23 14 0 11 6 23 13 25 6 3 2 6 -9 6 -22 1
-39 25 -28 42 3 5 -16 9 -41 9 -42 0 -46 -2 -43 -22 2 -19 8 -23 36 -20 17 1
32 -2 32 -8 0 -5 7 -10 16 -10 26 0 13 -44 -15 -48 -21 -3 -23 0 -19 22 l5 26
-76 0 c-42 1 -103 3 -136 5 -33 3 -54 2 -47 -1 6 -3 12 -14 12 -25 0 -14 -7
-19 -27 -19 -14 0 -23 3 -20 6 3 4 2 15 -4 25 -8 15 -6 19 7 19 24 0 15 6 -21
14 -16 4 -25 3 -19 -1 5 -4 10 -18 10 -31 0 -20 -4 -22 -31 -16 -16 4 -32 9
-35 13 -3 3 -16 7 -30 9 -14 1 -26 7 -28 12 -2 6 -13 10 -23 10 -11 0 -29 5
-40 10 -16 9 -17 15 -8 31 6 12 17 18 26 15 8 -3 19 -6 24 -6z m69 -5 c0 -13
-4 -14 -22 -4 -34 17 -34 19 -5 19 18 0 27 -5 27 -15z m715 -3 c13 -34 -19
-42 -44 -11 -14 17 -21 19 -44 10 -22 -9 -27 -8 -27 4 0 20 107 17 115 -3z
m-71 -29 c7 -18 -9 -33 -36 -33 -11 0 -18 8 -18 19 0 17 10 24 41 30 4 0 10
-7 13 -16z m-396 -43 c38 0 42 -2 42 -25 0 -30 -13 -32 -41 -4 -19 19 -22 19
-38 5 -28 -25 -51 -20 -51 10 0 22 3 25 23 20 12 -3 41 -6 65 -6z m111 -19 c9
-16 6 -20 -17 -24 -33 -6 -42 -1 -42 24 0 26 46 26 59 0z"/>
<path d="M1786 4635 c3 -33 10 -77 15 -97 12 -47 68 -140 115 -193 30 -33 28
-28 -10 25 -51 70 -96 156 -96 180 1 8 8 2 17 -15 16 -31 103 -145 110 -145 2
0 -21 35 -50 78 -67 95 -73 107 -92 174 l-15 53 6 -60z"/>
<path d="M2490 4346 c0 -8 71 -48 76 -43 3 3 -12 15 -35 27 -23 11 -41 18 -41
16z"/>
<path d="M2530 4276 c0 -7 71 -49 75 -44 2 2 -14 14 -36 26 -21 12 -39 21 -39
18z"/>
<path d="M2265 4135 c6 -1 56 -13 112 -25 56 -13 100 -26 99 -29 -2 -3 12 -6
31 -7 20 0 71 -19 124 -47 49 -26 89 -45 89 -43 0 11 -103 68 -160 90 -67 25
-249 67 -285 65 -11 0 -15 -2 -10 -4z"/>
<path d="M4296 4645 c-14 -59 -29 -91 -70 -149 -69 -95 -75 -105 -54 -88 9 7
33 39 54 70 51 77 58 83 50 47 -4 -16 -34 -70 -67 -120 -43 -64 -50 -79 -25
-50 69 78 106 156 122 262 7 53 13 98 11 100 -2 1 -11 -31 -21 -72z"/>
<path d="M3555 4325 c-22 -13 -35 -24 -30 -25 12 0 75 37 75 45 0 8 -2 7 -45
-20z"/>
<path d="M3517 4255 c-51 -35 -47 -41 6 -9 50 32 53 34 41 34 -5 0 -26 -11
-47 -25z"/>
<path d="M3768 4135 c-2 -3 -31 -10 -64 -16 -70 -12 -204 -53 -242 -73 -15 -8
-40 -27 -57 -41 l-30 -26 45 26 c82 48 125 64 271 99 79 19 130 35 113 35 -17
1 -33 -1 -36 -4z"/>
<path d="M3570 4040 c-8 -5 -10 -10 -5 -10 6 0 17 5 25 10 8 5 11 10 5 10 -5
0 -17 -5 -25 -10z"/>
<path d="M2969 3334 c-11 -14 -11 -18 6 -31 18 -13 20 -12 23 8 5 30 -12 44
-29 23z"/>
<path d="M3097 3344 c-4 -4 -7 -21 -6 -38 0 -17 3 -25 6 -18 2 6 11 12 20 12
9 0 13 8 11 22 -3 22 -19 33 -31 22z"/>
<path d="M1634 4704 c-19 -15 -19 -15 1 -6 11 5 27 12 35 15 13 5 13 6 -1 6
-8 1 -24 -6 -35 -15z"/>
<path d="M1132 4053 c-6 -21 -13 -58 -16 -83 -6 -47 -4 -43 20 54 16 66 13 87
-4 29z"/>
<path d="M1103 3880 c0 -25 2 -35 4 -22 2 12 2 32 0 45 -2 12 -4 2 -4 -23z"/>
<path d="M4779 4278 c5 -13 21 -46 35 -75 14 -29 33 -80 43 -113 9 -33 18 -58
21 -56 8 8 -29 117 -64 192 -33 70 -54 101 -35 52z"/>
<path d="M4882 4005 c0 -11 4 -33 8 -50 7 -27 8 -27 8 -5 0 14 -4 36 -8 50 -6
20 -8 21 -8 5z"/>
<path d="M4903 3880 c0 -25 2 -35 4 -22 2 12 2 32 0 45 -2 12 -4 2 -4 -23z"/>
<path d="M1643 4492 c1 -14 5 -18 11 -12 7 7 6 14 -1 21 -9 9 -12 7 -10 -9z"/>
<path d="M4460 4280 c0 -5 5 -10 10 -10 6 0 10 5 10 10 0 6 -4 10 -10 10 -5 0
-10 -4 -10 -10z"/>
<path d="M4525 4210 c-3 -5 1 -10 9 -10 9 0 16 5 16 10 0 6 -4 10 -9 10 -6 0
-13 -4 -16 -10z"/>
<path d="M4560 4320 c0 -5 4 -10 9 -10 6 0 13 5 16 10 3 6 -1 10 -9 10 -9 0
-16 -4 -16 -10z"/>
<path d="M1610 4315 c0 -8 5 -15 10 -15 6 0 10 7 10 15 0 8 -4 15 -10 15 -5 0
-10 -7 -10 -15z"/>
<path d="M1535 4287 c-4 -10 -5 -21 -1 -24 10 -10 18 4 13 24 -4 17 -4 17 -12
0z"/>
<path d="M1585 4289 c5 -7 0 -18 -10 -26 -23 -16 -8 -17 22 0 l23 12 -21 13
c-16 10 -19 10 -14 1z"/>
<path d="M4353 3650 c14 -11 29 -20 34 -20 11 1 -37 40 -49 40 -6 0 1 -9 15
-20z"/>
<path d="M1450 4225 c0 -8 9 -19 20 -25 11 -6 20 -8 20 -5 0 3 -9 14 -20 25
-15 15 -20 16 -20 5z"/>
<path d="M1430 4148 c0 -16 39 -42 48 -32 4 4 1 9 -6 11 -7 3 -19 11 -27 20
-12 11 -15 12 -15 1z"/>
<path d="M1406 4042 c-10 -45 -16 -85 -12 -89 3 -3 6 4 6 16 0 20 4 22 28 17
25 -5 26 -5 5 6 -33 16 -30 40 5 33 26 -5 26 -5 5 6 -25 13 -32 49 -10 49 17
0 43 -21 50 -40 4 -10 6 -8 6 6 1 15 -8 25 -28 34 -17 6 -31 19 -33 28 -2 9
-12 -21 -22 -66z"/>
<path d="M1491 4094 c0 -11 3 -14 6 -6 3 7 2 16 -1 19 -3 4 -6 -2 -5 -13z"/>
<path d="M1353 4024 c-3 -8 -1 -20 6 -27 8 -8 11 -4 11 16 0 30 -7 35 -17 11z"/>
<path d="M1376 3904 c-4 -20 -5 -38 -3 -40 3 -3 8 11 11 32 4 20 5 38 3 40 -3
3 -8 -11 -11 -32z"/>
<path d="M1252 3861 c2 -7 7 -12 11 -12 12 1 9 15 -3 20 -7 2 -11 -2 -8 -8z"/>
<path d="M1290 3826 c0 -19 -6 -25 -27 -28 -27 -3 -27 -4 5 -9 31 -5 32 -4 32
28 0 18 -2 33 -5 33 -3 0 -5 -11 -5 -24z"/>
<path d="M4110 3999 c0 -5 5 -7 10 -4 6 3 10 8 10 11 0 2 -4 4 -10 4 -5 0 -10
-5 -10 -11z"/>
<path d="M4106 3955 c-3 -9 -6 -22 -5 -28 0 -7 5 -1 10 12 5 13 8 26 5 28 -2
2 -6 -3 -10 -12z"/>
<path d="M4066 3855 c-26 -51 -76 -105 -136 -148 -24 -17 -24 -17 9 0 19 10
51 34 71 53 40 38 94 123 88 140 -1 5 -16 -15 -32 -45z"/>
<path d="M4117 3824 c-10 -40 -32 -88 -54 -118 -20 -28 -47 -67 -61 -86 l-24
-35 31 35 c56 61 109 148 121 200 18 76 7 80 -13 4z"/>
<path d="M3853 3792 c-34 -26 -86 -57 -115 -70 -42 -18 -46 -21 -19 -16 43 8
138 63 175 103 40 42 32 39 -41 -17z"/>
<path d="M3726 3689 c-27 -11 -88 -26 -135 -34 l-86 -14 70 4 c76 5 167 28
200 51 26 19 11 16 -49 -7z"/>
<path d="M3658 3693 c7 -3 16 -2 19 1 4 3 -2 6 -13 5 -11 0 -14 -3 -6 -6z"/>
<path d="M4106 3672 c-23 -45 -114 -140 -170 -178 -28 -19 -47 -34 -42 -34 19
0 106 63 144 104 45 49 96 125 88 133 -2 3 -11 -9 -20 -25z"/>
<path d="M3665 3640 c-13 -5 -14 -9 -5 -9 8 0 24 4 35 9 13 5 14 9 5 9 -8 0
-24 -4 -35 -9z"/>
<path d="M3578 3623 c12 -2 32 -2 45 0 12 2 2 4 -23 4 -25 0 -35 -2 -22 -4z"/>
<path d="M4087 3539 c-53 -55 -85 -79 -150 -109 -45 -21 -78 -39 -73 -39 30
-2 177 83 224 129 43 43 82 92 70 89 -2 0 -33 -32 -71 -70z"/>
<path d="M3560 3590 c-13 -9 -13 -10 0 -10 8 0 22 5 30 10 13 9 13 10 0 10 -8
0 -22 -5 -30 -10z"/>
<path d="M3630 3560 c-35 -7 -35 -7 -5 -9 17 0 37 4 45 9 17 11 11 11 -40 0z"/>
<path d="M3400 3550 c14 -4 41 -8 60 -8 l35 0 -40 9 c-22 4 -49 8 -60 7 -16 0
-15 -2 5 -8z"/>
<path d="M3528 3543 c6 -2 18 -2 25 0 6 3 1 5 -13 5 -14 0 -19 -2 -12 -5z"/>
<path d="M3910 3505 c-30 -19 -52 -35 -48 -35 8 0 108 61 108 66 0 7 -6 4 -60
-31z"/>
<path d="M3708 3523 c7 -3 16 -2 19 1 4 3 -2 6 -13 5 -11 0 -14 -3 -6 -6z"/>
<path d="M3810 3510 c-43 -14 -79 -17 -160 -15 -77 3 -94 1 -65 -5 38 -8 38
-9 -14 -6 -31 2 -48 0 -39 -5 35 -20 247 0 310 30 53 24 40 25 -32 1z"/>
<path d="M3497 3438 c10 -16 19 -24 21 -19 3 10 46 8 125 -4 15 -3 27 0 27 5
0 6 -26 10 -58 10 -37 0 -71 7 -95 19 l-37 19 17 -30z"/>
<path d="M3703 3463 c15 -2 39 -2 55 0 15 2 2 4 -28 4 -30 0 -43 -2 -27 -4z"/>
<path d="M3802 3453 c-24 -8 -41 -17 -39 -19 5 -5 69 16 82 27 11 11 10 11
-43 -8z"/>
<path d="M4710 3933 c0 -13 5 -23 10 -23 13 0 13 11 0 30 -8 12 -10 11 -10 -7z"/>
<path d="M4670 3916 c0 -17 14 -29 23 -20 8 8 -3 34 -14 34 -5 0 -9 -6 -9 -14z"/>
<path d="M1967 3989 c4 -13 8 -18 11 -10 2 7 -1 18 -6 23 -8 8 -9 4 -5 -13z"/>
<path d="M1980 3945 c0 -26 42 -116 75 -159 25 -32 93 -86 109 -86 4 0 -15 18
-43 40 -57 45 -95 100 -122 175 -10 27 -18 41 -19 30z"/>
<path d="M1955 3870 c6 -63 50 -159 95 -210 27 -30 25 -26 -9 27 -47 72 -58
95 -77 178 l-14 60 5 -55z"/>
<path d="M2215 3794 c47 -44 147 -93 201 -99 35 -4 36 -4 9 3 -51 14 -126 51
-174 85 -69 49 -81 53 -36 11z"/>
<path d="M1940 3746 c0 -4 14 -34 31 -66 35 -65 129 -166 180 -193 33 -17 33
-17 10 0 -85 62 -155 143 -204 238 -9 17 -16 26 -17 21z"/>
<path d="M2332 3691 c47 -27 150 -51 208 -50 37 1 30 4 -37 14 -46 7 -102 20
-125 28 -79 28 -83 28 -46 8z"/>
<path d="M2399 3637 c5 -5 19 -7 32 -5 20 3 19 5 -9 9 -20 3 -29 2 -23 -4z"/>
<path d="M2775 3640 c3 -4 -1 -11 -7 -14 -7 -3 1 -3 17 0 23 4 27 3 15 -5 -13
-10 -13 -11 0 -11 12 0 12 -2 2 -9 -11 -7 -10 -9 3 -14 9 -4 14 -3 10 2 -3 5
1 12 7 14 9 4 8 6 -2 6 -12 1 -12 3 -2 10 10 6 6 11 -17 19 -18 6 -29 7 -26 2z"/>
<path d="M2478 3623 c12 -2 30 -2 40 0 9 3 -1 5 -23 4 -22 0 -30 -2 -17 -4z"/>
<path d="M1940 3600 c0 -6 28 -40 63 -75 58 -58 129 -103 187 -119 14 -4 -2 7
-34 24 -86 44 -147 93 -194 154 -12 16 -22 23 -22 16z"/>
<path d="M2708 3603 c7 -3 16 -2 19 1 4 3 -2 6 -13 5 -11 0 -14 -3 -6 -6z"/>
<path d="M2500 3590 c8 -5 22 -10 30 -10 13 0 13 1 0 10 -8 5 -22 10 -30 10
-13 0 -13 -1 0 -10z"/>
<path d="M2420 3560 c14 -4 34 -8 45 -8 16 0 15 2 -5 8 -14 4 -34 8 -45 8 -16
0 -15 -2 5 -8z"/>
<path d="M2635 3550 l-40 -7 35 -1 c19 0 44 3 55 8 24 10 7 10 -50 0z"/>
<path d="M2528 3543 c6 -2 18 -2 25 0 6 3 1 5 -13 5 -14 0 -19 -2 -12 -5z"/>
<path d="M2155 3516 c33 -29 126 -76 147 -75 7 0 -9 9 -36 20 -26 11 -69 33
-95 50 -39 26 -42 27 -16 5z"/>
<path d="M2235 3514 c28 -13 61 -24 75 -24 15 0 -4 11 -45 25 -87 31 -95 31
-30 -1z"/>
<path d="M2378 3523 c7 -3 16 -2 19 1 4 3 -2 6 -13 5 -11 0 -14 -3 -6 -6z"/>
<path d="M2380 3490 l-45 -7 55 -1 c34 -1 65 -9 79 -19 14 -9 21 -11 17 -5 -5
8 4 12 31 12 21 0 44 4 51 9 8 5 -8 7 -40 5 -45 -2 -48 -2 -18 5 31 7 28 8
-25 8 -33 0 -80 -3 -105 -7z"/>
<path d="M2338 3463 c12 -2 32 -2 45 0 12 2 2 4 -23 4 -25 0 -35 -2 -22 -4z"/>
<path d="M2583 3453 c-13 -8 -52 -18 -88 -21 -36 -2 -65 -8 -65 -13 0 -5 6 -7
13 -5 6 3 38 7 69 10 47 5 57 3 60 -10 2 -11 9 -5 20 20 10 20 17 36 15 35 -1
0 -12 -7 -24 -16z"/>
<path d="M2231 3934 c0 -11 3 -14 6 -6 3 7 2 16 -1 19 -3 4 -6 -2 -5 -13z"/>
<path d="M2321 3824 c39 -30 107 -63 129 -64 8 0 -18 15 -57 34 -39 19 -74 39
-77 45 -4 6 -12 11 -19 11 -6 0 5 -12 24 -26z"/>
<path d="M3764 3830 c-23 -16 -63 -38 -90 -49 -27 -11 -42 -20 -33 -20 23 -1
133 55 154 79 24 27 18 25 -31 -10z"/>
<path d="M1720 3650 c-14 -11 -20 -20 -15 -20 6 0 21 9 35 20 14 11 21 20 15
20 -5 0 -21 -9 -35 -20z"/>
<path d="M1102 3657 c8 -77 37 -211 45 -204 2 3 -3 33 -12 68 -9 34 -19 93
-22 131 -3 38 -9 70 -12 73 -4 2 -4 -29 1 -68z"/>
<path d="M1150 3430 c0 -8 5 -22 10 -30 9 -13 10 -13 10 0 0 8 -5 22 -10 30
-9 13 -10 13 -10 0z"/>
<path d="M4903 3670 c0 -30 2 -43 4 -27 2 15 2 39 0 55 -2 15 -4 2 -4 -28z"/>
<path d="M4892 3590 c0 -14 2 -19 5 -12 2 6 2 18 0 25 -3 6 -5 1 -5 -13z"/>
<path d="M4882 3540 c0 -14 2 -19 5 -12 2 6 2 18 0 25 -3 6 -5 1 -5 -13z"/>
<path d="M2150 3208 c0 -4 -15 -11 -32 -16 -31 -8 -32 -9 -10 -16 17 -6 27 -3
36 9 18 25 66 10 66 -21 0 -26 -10 -29 -43 -13 -20 9 -20 9 -4 -4 33 -27 11
-66 -30 -50 -11 4 -14 3 -9 -5 4 -7 16 -12 27 -12 11 0 34 -7 50 -16 32 -16
59 -13 59 7 0 9 -3 9 -14 0 -21 -18 -65 5 -59 30 8 28 38 42 62 29 26 -14 31
-13 25 5 -4 8 -17 15 -31 15 -22 0 -25 4 -21 29 4 27 2 29 -34 33 -21 2 -38 0
-38 -4z"/>
<path d="M3986 3277 c3 -9 14 -12 30 -9 29 5 28 7 -8 16 -21 5 -26 3 -22 -7z"/>
<path d="M3910 3092 c0 -15 6 -18 30 -14 17 2 33 9 36 14 4 6 -4 8 -17 7 -13
-2 -30 0 -36 4 -9 6 -13 2 -13 -11z"/>
<path d="M3840 3072 c0 -18 26 -25 47 -12 16 9 15 10 -6 4 -15 -4 -27 -1 -32
7 -7 11 -9 11 -9 1z"/>
<path d="M1991 2974 c0 -11 3 -14 6 -6 3 7 2 16 -1 19 -3 4 -6 -2 -5 -13z"/>
<path d="M2110 2866 c0 -2 7 -7 16 -10 8 -3 12 -2 9 4 -6 10 -25 14 -25 6z"/>
<path d="M1890 2724 c0 -10 5 -26 10 -34 8 -11 9 -7 4 15 -8 37 -14 45 -14 19z"/>
<path d="M2141 2703 c-1 -13 -6 -23 -12 -23 -6 0 -8 -12 -6 -29 3 -17 2 -32
-1 -34 -4 -2 -1 -2 6 0 21 5 54 -17 48 -33 -3 -8 1 -14 10 -14 11 0 12 4 4 20
-7 14 -7 22 3 31 10 10 8 17 -11 38 -13 14 -28 35 -33 46 -7 19 -8 19 -8 -2z"/>
<path d="M2220 2665 c0 -14 4 -25 9 -25 4 0 6 11 3 25 -2 14 -6 25 -8 25 -2 0
-4 -11 -4 -25z"/>
<path d="M2385 2654 c-9 -14 -15 -15 -33 -5 -18 9 -25 8 -39 -6 -10 -10 -19
-30 -21 -45 l-3 -28 36 16 c40 16 59 11 52 -17 -4 -15 -2 -16 13 -7 15 10 16
14 4 25 -17 17 -18 50 -2 55 6 2 9 9 7 16 -3 8 -7 7 -14 -4z"/>
<path d="M2248 2603 c5 -21 7 -23 10 -9 2 10 0 22 -6 28 -6 6 -7 0 -4 -19z"/>
<path d="M2433 2604 c-6 -13 -7 -24 -3 -24 9 0 25 39 18 45 -2 2 -8 -7 -15
-21z"/>
<path d="M2500 2550 c-9 -6 -10 -10 -3 -10 6 0 15 5 18 10 8 12 4 12 -15 0z"/>
<path d="M2195 2530 c-3 -5 -1 -10 4 -10 6 0 11 5 11 10 0 6 -2 10 -4 10 -3 0
-8 -4 -11 -10z"/>
<path d="M4021 2974 c0 -11 3 -14 6 -6 3 7 2 16 -1 19 -3 4 -6 -2 -5 -13z"/>
<path d="M3876 2855 c-11 -8 -15 -15 -9 -15 6 0 16 7 23 15 16 19 11 19 -14 0z"/>
<path d="M3820 2825 c-14 -8 -20 -14 -14 -15 5 0 19 7 30 15 24 18 16 19 -16
0z"/>
<path d="M4116 2709 c-8 -42 0 -50 9 -9 4 17 5 34 2 36 -2 3 -7 -10 -11 -27z"/>
<path d="M3848 2671 c-18 -25 -24 -42 -18 -51 5 -8 4 -22 -1 -32 -7 -14 -6
-18 5 -18 9 0 13 6 10 14 -6 15 30 41 45 32 13 -8 11 56 -2 75 -11 15 -15 13
-39 -20z"/>
<path d="M3619 2668 c-13 -17 -18 -29 -12 -25 6 4 19 0 28 -9 12 -13 13 -19 4
-30 -9 -12 -9 -13 3 -9 9 4 32 -1 53 -9 47 -20 48 -20 36 3 -6 10 -8 21 -5 24
3 3 -4 15 -15 26 -17 17 -25 19 -41 11 -37 -20 -58 19 -22 39 9 6 12 11 5 11
-6 0 -22 -14 -34 -32z"/>
<path d="M3784 2656 c-9 -20 -8 -23 6 -19 12 3 16 11 13 24 -7 24 -6 24 -19
-5z"/>
<path d="M3510 2612 c0 -4 9 -13 21 -20 13 -9 18 -19 14 -32 -3 -10 -1 -21 5
-25 19 -12 10 45 -10 65 -21 21 -30 25 -30 12z"/>
<path d="M3570 2608 c0 -9 7 -19 16 -22 15 -6 15 -4 3 11 -7 10 -15 20 -16 22
-2 2 -3 -3 -3 -11z"/>
<path d="M3762 2600 c0 -14 2 -19 5 -12 2 6 2 18 0 25 -3 6 -5 1 -5 -13z"/>
<path d="M3611 2577 c2 -1 12 -9 22 -16 15 -12 17 -12 11 3 -3 9 -13 16 -22
16 -8 0 -13 -1 -11 -3z"/>
<path d="M3810 2537 c0 -10 8 -17 18 -17 9 0 13 4 7 8 -5 4 -13 11 -17 16 -5
5 -8 2 -8 -7z"/>
<path d="M2231 2304 c0 -11 3 -14 6 -6 3 7 2 16 -1 19 -3 4 -6 -2 -5 -13z"/>
<path d="M2486 2108 c5 -53 15 -66 47 -64 39 1 44 -25 7 -35 -15 -4 -18 -7 -8
-8 10 -1 32 8 50 19 29 18 30 20 11 20 -18 0 -23 6 -23 24 0 14 5 28 10 31 18
11 49 -5 53 -28 l4 -22 2 22 c0 14 -8 27 -21 34 -13 7 -26 17 -30 23 -5 7 -8
4 -8 -7 0 -27 -26 -31 -59 -8 -36 26 -37 26 -35 -1z"/>
<path d="M2250 2045 c0 -16 30 -55 42 -55 7 0 5 6 -4 13 -8 6 -20 21 -26 32
-6 11 -12 15 -12 10z"/>
<path d="M2615 2000 c-3 -5 -1 -10 4 -10 6 0 11 5 11 10 0 6 -2 10 -4 10 -3 0
-8 -4 -11 -10z"/>
<path d="M3822 2343 c-1 -17 -5 -40 -8 -50 -5 -17 -5 -17 6 0 6 9 9 32 7 50
l-4 32 -1 -32z"/>
<path d="M3725 2309 c-16 -10 -25 -19 -19 -19 7 0 22 9 35 20 30 24 23 24 -16
-1z"/>
<path d="M3525 2105 c-27 -14 -39 -26 -37 -38 2 -10 -5 -20 -17 -25 -21 -7
-21 -7 -1 -20 17 -11 20 -10 20 8 0 23 29 27 48 8 9 -9 12 -9 12 2 0 7 6 21
13 29 8 9 11 25 8 36 -6 20 -6 20 -46 0z"/>
<path d="M3416 2083 c-4 -9 -3 -20 1 -24 4 -4 9 3 9 17 2 28 -1 31 -10 7z"/>
<path d="M3786 2025 c-9 -26 -7 -32 5 -12 6 10 9 21 6 23 -2 3 -7 -2 -11 -11z"/>
<path d="M3431 1994 c0 -11 3 -14 6 -6 3 7 2 16 -1 19 -3 4 -6 -2 -5 -13z"/>
<path d="M3508 2003 c7 -3 16 -2 19 1 4 3 -2 6 -13 5 -11 0 -14 -3 -6 -6z"/>
<path d="M3528 1953 c7 -3 16 -2 19 1 4 3 -2 6 -13 5 -11 0 -14 -3 -6 -6z"/>
<path d="M3800 1670 c-8 -5 -10 -10 -5 -10 6 0 17 5 25 10 8 5 11 10 5 10 -5
0 -17 -5 -25 -10z"/>
<path d="M2772 1685 c0 -16 2 -22 5 -12 2 9 2 23 0 30 -3 6 -5 -1 -5 -18z"/>
<path d="M2250 1670 c8 -5 20 -10 25 -10 6 0 3 5 -5 10 -8 5 -19 10 -25 10 -5
0 -3 -5 5 -10z"/>
<path d="M4076 1475 c4 -16 15 -68 25 -115 9 -47 18 -75 18 -63 1 28 -25 151
-39 183 -10 24 -10 23 -4 -5z"/>
<path d="M3877 1304 c-8 -8 3 -34 14 -34 5 0 9 9 9 20 0 19 -11 26 -23 14z"/>
<path d="M2160 1284 c0 -16 26 -43 42 -44 11 0 5 44 -7 52 -18 13 -35 9 -35
-8z"/>
<path d="M2250 1228 c0 -18 18 -34 28 -24 3 4 -2 14 -11 23 -16 16 -17 16 -17
1z"/>
<path d="M2301 1224 c0 -11 3 -14 6 -6 3 7 2 16 -1 19 -3 4 -6 -2 -5 -13z"/>
<path d="M2320 1188 c0 -4 9 -8 20 -8 11 0 20 4 20 8 0 4 -9 8 -20 8 -11 0
-20 -4 -20 -8z"/>
<path d="M2315 1150 c-4 -6 3 -10 14 -10 25 0 27 6 6 13 -8 4 -17 2 -20 -3z"/>
<path d="M2225 1120 c3 -5 14 -10 23 -10 15 0 15 2 2 10 -20 13 -33 13 -25 0z"/>
<path d="M2390 865 c-7 -9 -11 -18 -8 -20 7 -8 38 5 38 15 0 17 -18 19 -30 5z"/>
<path d="M2421 826 c-14 -17 -1 -28 19 -16 11 7 12 12 4 20 -8 8 -14 7 -23 -4z"/>
<path d="M2465 790 c3 -5 -2 -10 -11 -10 -13 0 -15 -3 -7 -11 6 -6 16 -8 22
-5 14 9 14 36 0 36 -5 0 -7 -4 -4 -10z"/>
<path d="M2480 745 c-10 -12 -9 -16 3 -21 21 -8 37 3 30 21 -7 19 -17 19 -33
0z"/>
<path d="M2523 713 c-14 -5 -18 -33 -5 -33 4 0 14 5 22 10 17 11 2 30 -17 23z"/>
<path d="M2552 671 c-19 -12 -3 -43 18 -36 15 5 17 2 13 -16 -4 -15 -2 -20 5
-15 6 3 12 -2 14 -14 2 -14 7 -17 17 -10 12 7 10 16 -14 50 -33 48 -37 51 -53
41z"/>
<path d="M2085 1231 c-7 -12 12 -24 25 -16 11 7 4 25 -10 25 -5 0 -11 -4 -15
-9z"/>
<path d="M3800 1215 c0 -9 5 -15 11 -13 6 2 11 8 11 13 0 5 -5 11 -11 13 -6 2
-11 -4 -11 -13z"/>
<path d="M3825 1120 c-3 -5 1 -10 10 -10 9 0 13 5 10 10 -3 6 -8 10 -10 10 -2
0 -7 -4 -10 -10z"/>
<path d="M2672 909 c2 -6 8 -10 13 -10 5 0 11 4 13 10 2 6 -4 11 -13 11 -9 0
-15 -5 -13 -11z"/>
<path d="M2200 1010 c0 -5 7 -10 15 -10 8 0 15 5 15 10 0 6 -7 10 -15 10 -8 0
-15 -4 -15 -10z"/>
<path d="M2220 920 c0 -5 9 -10 20 -10 11 0 20 5 20 10 0 6 -9 10 -20 10 -11
0 -20 -4 -20 -10z"/>
<path d="M2280 840 c0 -5 9 -10 20 -10 11 0 20 5 20 10 0 6 -9 10 -20 10 -11
0 -20 -4 -20 -10z"/>
<path d="M3350 865 c0 -8 5 -15 10 -15 6 0 10 7 10 15 0 8 -4 15 -10 15 -5 0
-10 -7 -10 -15z"/>
<path d="M3307 854 c-8 -8 1 -24 14 -24 5 0 9 7 9 15 0 15 -12 20 -23 9z"/>
<path d="M3262 828 c6 -18 28 -21 28 -4 0 9 -7 16 -16 16 -9 0 -14 -5 -12 -12z"/>
<path d="M2730 950 c0 -5 7 -10 15 -10 8 0 15 5 15 10 0 6 -7 10 -15 10 -8 0
-15 -4 -15 -10z"/>
<path d="M3290 910 c0 -5 4 -10 9 -10 6 0 13 5 16 10 3 6 -1 10 -9 10 -9 0
-16 -4 -16 -10z"/>
<path d="M3260 900 c0 -5 5 -10 10 -10 6 0 10 5 10 10 0 6 -4 10 -10 10 -5 0
-10 -4 -10 -10z"/>
<path d="M3654 856 c-9 -24 12 -44 28 -28 10 10 8 16 -5 29 -15 15 -17 15 -23
-1z"/>
<path d="M3617 814 c-11 -11 3 -24 25 -24 17 0 18 2 8 15 -13 16 -23 19 -33 9z"/>
<path d="M3590 781 c0 -13 28 -33 33 -23 3 4 -3 13 -14 20 -10 7 -19 8 -19 3z"/>
<path d="M3564 739 c-10 -17 13 -36 27 -22 12 12 4 33 -11 33 -5 0 -12 -5 -16
-11z"/>
<path d="M3530 701 c0 -13 26 -32 33 -24 8 7 -11 33 -24 33 -5 0 -9 -4 -9 -9z"/>
<path d="M3500 656 c0 -21 21 -31 31 -15 5 8 3 17 -4 21 -18 12 -27 10 -27 -6z"/>
<path d="M3466 622 c-7 -12 22 -38 31 -28 4 3 0 14 -9 22 -9 10 -18 12 -22 6z"/>
<path d="M3752 839 c2 -7 10 -15 17 -17 8 -3 12 1 9 9 -2 7 -10 15 -17 17 -8
3 -12 -1 -9 -9z"/>
<path d="M2300 700 c-12 -7 -12 -12 4 -29 28 -31 49 -12 24 22 -9 11 -18 14
-28 7z"/>
<path d="M3666 582 c-3 -6 -1 -14 5 -17 15 -10 25 3 12 16 -7 7 -13 7 -17 1z"/>
<path d="M2362 763 c-6 -2 -10 -9 -7 -13 7 -11 35 -2 35 11 0 10 -8 10 -28 2z"/>
<path d="M3687 764 c-8 -8 1 -24 14 -24 5 0 9 7 9 15 0 15 -12 20 -23 9z"/>
<path d="M2760 610 c0 -6 -4 -8 -10 -5 -5 3 -10 1 -10 -4 0 -6 6 -11 13 -11 9
0 8 -3 -2 -9 -22 -14 6 -24 30 -10 15 8 18 13 9 19 -6 4 -11 11 -10 16 1 5 -3
10 -9 12 -6 2 -11 -1 -11 -8z"/>
<path d="M3268 677 c-26 -12 -48 -27 -48 -34 0 -17 21 -28 29 -15 3 6 19 14
34 17 15 4 27 14 27 24 0 14 2 14 10 1 11 -18 23 -8 14 14 -7 20 -7 20 -66 -7z"/>
<path d="M3300 615 c-1 -5 -2 -13 -1 -17 0 -5 -3 -8 -9 -8 -5 0 -10 -5 -10
-11 0 -6 7 -9 15 -5 8 3 15 1 15 -4 0 -6 5 -10 11 -10 6 0 9 7 5 15 -3 8 -1
15 4 15 6 0 10 5 10 11 0 6 -6 9 -14 6 -8 -3 -17 -1 -20 6 -2 7 -5 8 -6 2z"/>
<path d="M2430 675 c0 -9 5 -15 11 -13 6 2 11 8 11 13 0 5 -5 11 -11 13 -6 2
-11 -4 -11 -13z"/>
<path d="M2490 600 c0 -5 7 -10 15 -10 8 0 15 5 15 10 0 6 -7 10 -15 10 -8 0
-15 -4 -15 -10z"/>
<path d="M3556 592 c-3 -6 -1 -14 5 -17 15 -10 25 3 12 16 -7 7 -13 7 -17 1z"/>
<path d="M2867 460 c3 -11 7 -20 9 -20 2 0 8 9 14 20 9 17 8 20 -9 20 -14 0
-18 -5 -14 -20z"/>
<path d="M3120 460 c0 -11 5 -20 10 -20 6 0 10 9 10 20 0 11 -4 20 -10 20 -5
0 -10 -9 -10 -20z"/>
<path d="M3167 466 c-3 -8 2 -16 14 -19 14 -4 19 0 19 14 0 22 -25 26 -33 5z"/>
<path d="M3436 442 c-3 -6 -1 -14 5 -17 15 -10 25 3 12 16 -7 7 -13 7 -17 1z"/>
<path d="M2732 380 c0 -14 2 -19 5 -12 2 6 2 18 0 25 -3 6 -5 1 -5 -13z"/>
<path d="M2820 384 c0 -8 5 -12 10 -9 6 3 10 10 10 16 0 5 -4 9 -10 9 -5 0
-10 -7 -10 -16z"/>
<path d="M2920 378 c0 -19 2 -20 10 -8 13 19 13 30 0 30 -5 0 -10 -10 -10 -22z"/>
<path d="M3120 385 c0 -8 7 -15 15 -15 8 0 15 7 15 15 0 8 -7 15 -15 15 -8 0
-15 -7 -15 -15z"/>
<path d="M2950 295 c0 -9 9 -15 25 -15 16 0 25 6 25 15 0 9 -9 15 -25 15 -16
0 -25 -6 -25 -15z"/>
<path d="M2829 5852 c-91 -65 -179 -127 -195 -139 l-29 -22 203 -1 202 0 0
140 c0 77 -3 140 -7 139 -5 -1 -83 -53 -174 -117z"/>
<path d="M3070 5830 l0 -140 200 1 c183 1 229 7 183 23 -10 3 -52 30 -93 60
-98 72 -279 196 -285 196 -3 0 -5 -63 -5 -140z"/>
<path d="M2525 5640 c-22 -16 -66 -47 -99 -68 -32 -22 -54 -41 -50 -44 5 -2
135 -4 289 -4 280 1 280 2 313 26 28 21 32 29 32 72 l0 48 -222 0 -223 -1 -40
-29z"/>
<path d="M3029 5653 c-2 -34 2 -127 6 -131 14 -15 25 19 25 79 0 55 -3 69 -15
69 -8 0 -16 -8 -16 -17z"/>
<path d="M3070 5620 c0 -41 4 -51 23 -61 12 -7 25 -17 29 -22 7 -11 588 -18
588 -7 -1 8 -77 60 -89 60 -6 0 -11 4 -11 9 0 5 -23 23 -50 40 l-50 31 -220 0
-220 0 0 -50z"/>
<path d="M2990 5540 c-8 -5 -12 -11 -9 -14 2 -3 11 -1 19 4 8 5 12 11 9 14 -2
3 -11 1 -19 -4z"/>
<path d="M3070 5542 c0 -5 7 -13 16 -16 10 -4 14 -1 12 6 -5 15 -28 23 -28 10z"/>
<path d="M4580 4915 c18 -48 62 -115 71 -109 5 3 6 -2 3 -10 -6 -16 51 -126
66 -126 11 0 85 87 85 99 0 6 -22 26 -50 45 -47 34 -50 35 -69 18 -20 -16 -20
-16 -6 2 13 16 11 21 -20 46 -19 16 -47 36 -62 45 l-28 16 10 -26z"/>
<path d="M1375 4849 c-55 -39 -100 -74 -100 -78 0 -4 21 -31 46 -60 l46 -53
27 48 c38 68 41 87 17 108 -12 11 -21 24 -21 30 0 6 12 -2 26 -18 14 -15 26
-27 28 -25 2 2 13 23 25 46 21 43 27 73 14 72 -5 0 -53 -32 -108 -70z"/>
<path d="M1896 1058 c29 -245 107 -439 243 -610 305 -383 801 -529 1267 -373
378 127 679 476 750 870 18 104 18 165 0 165 -10 0 -16 -20 -21 -67 -18 -180
-77 -343 -181 -506 -46 -70 -199 -237 -218 -237 -6 0 9 18 34 40 25 21 41 39
36 40 -5 0 -28 -17 -50 -37 -70 -63 -89 -77 -151 -115 -91 -54 -122 -69 -225
-104 -52 -18 -89 -33 -82 -34 8 0 48 12 90 26 120 41 243 107 304 163 15 13
30 22 34 19 13 -14 -149 -116 -263 -165 -125 -54 -221 -74 -381 -80 -207 -8
-344 18 -517 97 -78 36 -198 111 -211 132 -5 8 1 6 16 -4 94 -67 294 -168 330
-168 8 1 -17 13 -56 29 -187 74 -357 200 -471 351 -84 111 -126 190 -174 330
-16 47 -27 69 -23 50 9 -52 69 -200 107 -261 63 -106 102 -155 185 -236 46
-46 80 -83 74 -83 -16 0 -176 172 -218 235 -103 151 -166 316 -187 485 -10 77
-15 95 -30 98 -16 3 -17 -2 -11 -50z"/>
<path d="M1952 990 c0 -19 2 -27 5 -17 2 9 2 25 0 35 -3 9 -5 1 -5 -18z"/>
<path d="M1962 930 c0 -14 2 -19 5 -12 2 6 2 18 0 25 -3 6 -5 1 -5 -13z"/>
<path d="M2740 99 c64 -26 168 -39 293 -37 l132 1 -160 7 c-97 5 -183 14 -218
24 -64 18 -85 20 -47 5z"/>
<path d="M3200 80 l-35 -7 35 -1 c19 0 46 4 60 8 l25 8 -25 0 c-14 0 -41 -4
-60 -8z"/>
</g>
</svg>
